<?xml version="1.0" encoding="UTF-8"?>
<!DOCTYPE svg PUBLIC "-//W3C//DTD SVG 1.1//EN" "http://www.w3.org/Graphics/SVG/1.1/DTD/svg11.dtd">
<!-- Creator: CorelDRAW -->
<svg xmlns="http://www.w3.org/2000/svg" xml:space="preserve" width="43.87cm" height="12cm" version="1.1" style="shape-rendering:geometricPrecision; text-rendering:geometricPrecision; image-rendering:optimizeQuality; fill-rule:evenodd; clip-rule:evenodd"
viewBox="0 0 7394.99 2022.79"
 xmlns:xlink="http://www.w3.org/1999/xlink"
 xmlns:xodm="http://www.corel.com/coreldraw/odm/2003">
 <defs>
  <style type="text/css">
   <![CDATA[
    .fil2 {fill:none}
    .fil1 {fill:#3A337F}
    .fil0 {fill:#5F51DC}
    .fil8 {fill:#5F51DC}
    .fil4 {fill:#ED5D5A}
    .fil3 {fill:#FF6764}
    .fil7 {fill:white}
    .fil5 {fill:white}
    .fil6 {fill:white;fill-rule:nonzero}
   ]]>
  </style>
    <clipPath id="id0">
     <path d="M5783.19 0l1200.81 0c226.04,0 410.99,184.95 410.99,410.99l0 1200.81c0,226.04 -184.95,410.99 -410.99,410.99l-1200.81 0c-226.04,0 -410.99,-184.95 -410.99,-410.99l0 -1200.81c0,-226.04 184.95,-410.99 410.99,-410.99z"/>
    </clipPath>
      <mask id="id1">
  <linearGradient id="id2" gradientUnits="userSpaceOnUse" x1="6159.75" y1="831.79" x2="7469.28" y2="2288.84">
   <stop offset="0" style="stop-opacity:1; stop-color:white"/>
   <stop offset="1" style="stop-opacity:0; stop-color:white"/>
  </linearGradient>
       <rect style="fill:url(#id2)" x="6074.52" y="425.73" width="1567.6" height="2103.67"/>
      </mask>
 </defs>
 <g id="Layer_x0020_1">
  <metadata id="CorelCorpID_0Corel-Layer"/>
  <g id="_2579470567792">
   <path class="fil0" d="M5783.19 0l1200.81 0c226.04,0 410.99,184.95 410.99,410.99l0 1200.81c0,226.04 -184.95,410.99 -410.99,410.99l-1200.81 0c-226.04,0 -410.99,-184.95 -410.99,-410.99l0 -1200.81c0,-226.04 184.95,-410.99 410.99,-410.99z"/>
   <g style="clip-path:url(#id0)">
    <g>
     <polygon id="_1" class="fil1" style="mask:url(#id1)" points="6076.21,1703.1 6183.65,1021.52 6619.39,505.16 6803.79,427.41 7640.44,1258.34 7432.4,2519.19 6871.15,2527.71 "/>
    </g>
   </g>
   <path class="fil2" d="M5783.19 0l1200.81 0c226.04,0 410.99,184.95 410.99,410.99l0 1200.81c0,226.04 -184.95,410.99 -410.99,410.99l-1200.81 0c-226.04,0 -410.99,-184.95 -410.99,-410.99l0 -1200.81c0,-226.04 184.95,-410.99 410.99,-410.99z"/>
   <path class="fil3" d="M6266.84 1083.72c-208.92,0 -378.28,166.99 -378.28,372.99 0,205.99 169.37,372.99 378.28,372.99l0 -745.97z"/>
   <path class="fil4" d="M5888.64 1450.56c90.91,-121.97 251.44,-157.61 378.2,-110.95l0 -255.9c-178.71,0 -367.28,144.46 -375.04,323.98 -0.5,11.55 -4.25,31.12 -3.16,42.86z"/>
   <path class="fil5" d="M6277.52 1177.08l336.17 -19.5c145.78,-8.46 265.05,-135.05 265.05,-281.32l0 -281.72c0,-173.44 -141.43,-307.14 -314.29,-297.11l-357.8 20.76c-172.86,10.03 -314.28,160.13 -314.28,333.57l0 458.39 -3.75 340.42c49.89,-250.16 333.5,-269.42 388.89,-273.48z"/>
   <path class="fil3" d="M5892.26 1121.76c150.48,-203.8 435.32,-224.1 435.32,-224.1l9.08 90.72c3.25,32.53 57.52,50.84 80.84,24.19l249.61 -257.33c7.18,-7.4 10.03,-16.87 8.87,-27.12 -1.15,-10.25 -6.06,-18.82 -14.69,-24.46l-296.68 -194.17c-33.6,-21.87 -86.08,-14.15 -78.79,36.8l13.69 95.53c-297.47,21.79 -407.11,172.79 -407.11,172.79l0 295.54 -0.13 11.62z"/>
   <path class="fil6" d="M6283.35 1176.75l-5.7 0.4c-486.05,33.45 -398.3,639.26 -10.82,646.1l0 6.44c-112.61,-0.91 -209.83,-45.05 -281.31,-121.38 -59.77,-63.82 -96.9,-157.79 -96.9,-245.16 0,-17.93 0.02,-24 3.49,-42.46 43.08,-229.38 317.95,-248.31 384.48,-252.89l5.7 -0.4 1.07 9.35z"/>
  </g>
  <g id="_2579470570528">
   <g>
    <g>
     <path class="fil7" d="M1297.94 1466.1l0 -153.2 72.31 -75.99 137.27 229.19 218.16 0 -223.06 -370.14 230.42 -242.67 -236.55 0 -198.55 220.61 0 -531.92 -188.75 0 0 924.12 188.75 0zm-519.67 0l188.75 0 0 -612.81 -188.75 0 0 612.81zm-410.58 -301.5c185.07,0 308.86,-121.34 308.86,-302.73 0,-181.39 -123.79,-302.73 -308.86,-302.73l-367.69 0 0 906.96 198.55 0 0 -301.5 169.14 0zm-44.12 -428.97c95.6,0 143.4,41.67 143.4,126.24 0,84.57 -47.8,126.24 -143.4,126.24l-125.01 0 0 -252.48 125.01 0z"/>
     <path class="fil3" d="M871.42 757.69c58.83,0 106.63,-47.8 106.63,-107.86 0,-60.06 -47.8,-106.63 -106.63,-106.63 -60.06,0 -107.86,46.57 -107.86,106.63 0,60.06 47.8,107.86 107.86,107.86z"/>
    </g>
   </g>
   <path class="fil8" d="M1934.04 588.56l-88.24 0 0 877.55 491.48 0 0 -80.89 -403.23 0 0 -796.66zm2731.92 892.26c139.72,0 231.64,-67.41 263.51,-192.42l-80.89 0c-22.06,78.44 -84.57,120.11 -181.39,120.11 -127.47,0 -203.45,-83.34 -209.58,-227.97l471.87 0 0 -41.67c0,-167.91 -109.08,-281.89 -269.64,-281.89 -169.14,0 -284.35,127.46 -284.35,312.53 0,186.3 116.44,311.31 290.47,311.31zm-6.13 -551.53c111.53,0 185.07,75.99 185.07,189.97l-384.85 0c14.71,-116.44 88.24,-189.97 199.78,-189.97zm-921.67 241.45c0,186.3 113.98,310.08 281.89,310.08 134.82,0 240.22,-79.66 268.41,-201l-85.8 0c-23.29,75.99 -94.37,125.02 -182.62,125.02 -120.11,0 -198.55,-94.37 -198.55,-235.32 0,-145.85 84.57,-237.77 204.68,-237.77 82.12,0 153.2,45.35 175.26,127.46l84.57 0c-23.29,-122.56 -123.79,-202.23 -261.06,-202.23 -172.81,0 -286.8,127.46 -286.8,313.76zm-562.56 295.38l0 -310.08c0,-133.59 68.64,-221.84 189.97,-221.84 98.05,0 160.56,49.03 160.56,187.52l0 344.4 84.57 0 0 -362.78c0,-149.53 -67.41,-246.35 -230.42,-246.35 -85.79,0 -164.23,42.9 -203.45,118.88l-12.26 -102.95 -73.54 0 0 593.2 84.57 0zm-553.98 14.71c100.5,0 181.39,-44.12 218.16,-118.88l11.03 104.18 71.09 0 0 -383.62c0,-156.88 -100.5,-225.51 -237.77,-225.51 -145.85,0 -243.9,77.21 -243.9,197.33l77.22 0c0,-79.67 61.28,-126.24 164.23,-126.24 87.02,0 156.88,36.77 156.88,153.2l0 19.61 -196.1 15.93c-138.5,11.03 -221.84,79.67 -221.84,188.75 0,104.18 74.76,175.26 201,175.26zm19.61 -68.64c-80.89,0 -134.82,-36.77 -134.82,-109.08 0,-66.18 45.35,-115.21 156.88,-125.01l175.26 -13.48 0 31.87c0,128.69 -72.31,215.71 -197.33,215.71z"/>
  </g>
 </g>
</svg>
