<?xml version="1.0" encoding="UTF-8"?>
<!DOCTYPE svg PUBLIC "-//W3C//DTD SVG 1.1//EN" "http://www.w3.org/Graphics/SVG/1.1/DTD/svg11.dtd">
<!-- Creator: CorelDRAW -->
<svg xmlns="http://www.w3.org/2000/svg" xml:space="preserve" width="1.31391in" height="1.3139in" version="1.1" style="shape-rendering:geometricPrecision; text-rendering:geometricPrecision; image-rendering:optimizeQuality; fill-rule:evenodd; clip-rule:evenodd"
viewBox="0 0 125 125"
 xmlns:xlink="http://www.w3.org/1999/xlink"
 xmlns:xodm="http://www.corel.com/coreldraw/odm/2003">
 <defs>
  <style type="text/css">
   <![CDATA[
    .fil1 {fill:#5F51DC}
    .fil0 {fill:#FF6764}
   ]]>
  </style>
 </defs>
 <g id="Layer_x0020_1">
  <metadata id="CorelCorpID_0Corel-Layer"/>
  <g id="_1607681004752">
   <path class="fil0" d="M122.14 0.82c-7.33,-1.62 -38.67,-5.24 -73.94,39.6l-28.88 1.78c-0.92,0.06 -1.69,0.53 -2.15,1.33l-16.79 28.83c-0.61,1.05 -0.46,2.34 0.39,3.22l4.12 4.26c0.71,0.73 1.69,0.99 2.67,0.72l19.44 -5.54c0.96,-0.27 1.93,-0.02 2.63,0.68l19.69 19.69c0.71,0.71 0.96,1.67 0.68,2.63l-5.54 19.44c-0.28,0.98 -0.01,1.96 0.72,2.67l4.26 4.12c0.88,0.85 2.16,1 3.22,0.39l28.83 -16.79c0.8,-0.47 1.27,-1.23 1.33,-2.15l1.78 -28.88c44.84,-35.26 41.22,-66.6 39.6,-73.94 -0.23,-1.04 -1,-1.81 -2.04,-2.04zm-14.72 16.76c4.06,4.06 4.06,10.64 0,14.7 -4.06,4.06 -10.64,4.06 -14.7,0 -4.06,-4.06 -4.06,-10.64 0,-14.7 4.06,-4.06 10.64,-4.06 14.7,0z"/>
   <path class="fil1" d="M27.87 80.32l8.41 8.41 8.41 8.41c0.64,0.64 0.9,1.47 0.75,2.36 -0.16,0.89 -0.69,1.58 -1.51,1.97l-31.55 14.74c-1.04,0.49 -2.22,0.28 -3.03,-0.53 -0.81,-0.81 -1.02,-1.99 -0.53,-3.03l14.74 -31.55c0.38,-0.82 1.08,-1.35 1.97,-1.51 0.89,-0.16 1.72,0.11 2.36,0.75z"/>
  </g>
 </g>
</svg>
