<?xml version="1.0" encoding="UTF-8"?>
<!DOCTYPE svg PUBLIC "-//W3C//DTD SVG 1.1//EN" "http://www.w3.org/Graphics/SVG/1.1/DTD/svg11.dtd">
<!-- Creator: CorelDRAW -->
<svg xmlns="http://www.w3.org/2000/svg" xml:space="preserve" width="1.30459in" height="1.30459in" version="1.1" style="shape-rendering:geometricPrecision; text-rendering:geometricPrecision; image-rendering:optimizeQuality; fill-rule:evenodd; clip-rule:evenodd"
viewBox="0 0 54.3 54.3"
 xmlns:xlink="http://www.w3.org/1999/xlink"
 xmlns:xodm="http://www.corel.com/coreldraw/odm/2003">
 <defs>
  <style type="text/css">
   <![CDATA[
    .fil1 {fill:#F8F9FD}
    .fil0 {fill:#FF6764}
   ]]>
  </style>
 </defs>
 <g id="Layer_x0020_1">
  <metadata id="CorelCorpID_0Corel-Layer"/>
  <g id="_1608042743200">
   <rect class="fil0" x="-0" y="-0" width="54.3" height="54.3" rx="12.2" ry="12.2"/>
   <path class="fil1" d="M50.38 27.15c-0.08,-0.23 -0.29,-0.68 -0.38,-0.82l-0.36 -0.04c-0.17,0.18 -0.23,0.26 -0.33,0.49 -0.13,-0.19 -0.37,-1.59 -0.91,-1.1 -0.08,0.07 -0.33,0.97 -0.63,0.19 -0.2,-0.53 -0.26,-1.17 -0.7,-1.06 -0.38,0.09 -0.59,1.33 -0.81,1.67 -0.22,-0.37 -0.43,-1.76 -0.68,-1.99 -0.68,-0.6 -0.67,1.14 -1.07,1.42 -0.6,-0.2 -0.3,-1.98 -0.97,-1.97 -0.47,0.01 -0.57,1.31 -0.82,2.12 -0.12,-0.35 -0.47,-3.43 -0.57,-4.24 -0.08,-0.62 -0.07,-0.92 -0.69,-0.7 -0.14,0.48 -0.19,1.22 -0.26,1.77 -0.04,0.3 -0.08,0.56 -0.11,0.87 -0.04,0.39 0.02,0.65 -0.34,0.67 -0.24,-0.2 -0.28,-1.21 -0.33,-1.58 -0.1,-0.67 0.06,-1.28 -0.74,-1.15 -0.19,0.6 -0.27,1.54 -0.36,2.18 -0.09,0.71 -0.19,1.5 -0.33,2.2 -0.17,-0.35 -0.42,-1.99 -0.61,-2.17 -0.68,-0.66 -0.67,1.19 -1,1.59 -0.4,-0.03 -0.33,-0.35 -0.5,-1.27 -0.09,-0.47 -0.14,-1.08 -0.37,-1.38 -0.68,-0.11 -0.61,0.7 -0.73,1.33 -0.1,0.54 -0.25,1.19 -0.33,1.74 -0.32,-1.14 -0.31,-3.04 -0.67,-4.01 -0.37,-0.08 -0.54,-0.11 -0.62,0.33l-0.27 1.81c-0.06,0.39 -0,0.66 -0.3,0.82 -0.42,-0.23 -0.34,-1.57 -0.53,-2.21 -0.09,-0.3 -0.41,-0.39 -0.6,-0.18 -0.25,0.27 -0.37,2.62 -0.61,3.12 -0.07,-0.67 -0.51,-5.56 -0.66,-5.75 -0.14,-0.17 -0.41,-0.14 -0.53,-0.02 -0.15,0.16 -0.26,1.84 -0.29,2.1 -0.06,0.6 -0.2,2.46 -0.33,2.85l-0.42 -6.31c-0.03,-0.54 0.12,-1.76 -0.62,-1.6 -0.46,0.1 -0.37,0.99 -0.43,1.79l-0.42 6.37c-0.18,-0.49 -0.38,-4.83 -0.43,-5.77l-0.29 -4.36c-0.03,-0.37 0.07,-1.17 -0.28,-1.28 -0.27,0.09 -0.22,0.19 -0.23,0.49 -0.01,0.26 -0.03,0.52 -0.05,0.78 -0.13,1.73 -0.57,9.78 -0.72,10.13l-0.49 -7.34c-0.02,-0.37 0.01,-0.74 -0.36,-0.81 -0.73,-0.15 -0.58,1 -0.61,1.53 -0.14,2.06 -0.34,4.36 -0.42,6.37 -0.2,-0.54 -0.42,-4.66 -0.59,-4.91 -0.11,-0.16 -0.4,-0.21 -0.55,-0.02 -0.15,0.19 -0.59,5.09 -0.67,5.79 -0.18,-0.53 -0.41,-2.88 -0.57,-3.13 -0.14,-0.22 -0.47,-0.2 -0.6,0.04 -0.16,0.32 -0.18,1.99 -0.5,2.29 -0.37,-0.05 -0.3,-0.35 -0.36,-0.74l-0.28 -1.92c-0.1,-0.43 -0.54,-0.41 -0.67,-0.14 -0.2,0.44 -0.42,3.12 -0.61,3.88 -0.12,-0.59 -0.23,-1.18 -0.33,-1.74 -0.11,-0.62 -0.06,-1.43 -0.73,-1.33 -0.22,0.29 -0.27,0.85 -0.36,1.32 -0.08,0.43 -0.15,1.33 -0.43,1.32 -0.22,-0.1 -0.17,-0.11 -0.24,-0.4 -0.05,-0.19 -0.1,-0.38 -0.14,-0.58 -0.08,-0.34 -0.19,-1 -0.66,-0.65 -0.26,0.19 -0.43,1.8 -0.65,2.21 -0.13,-0.79 -0.24,-1.63 -0.36,-2.42 -0.24,-1.67 -0.08,-2.09 -0.85,-1.95 -0.24,0.52 -0.22,2.44 -0.54,2.74 -0.42,-0.05 -0.34,-0.6 -0.46,-1.54 -0.06,-0.49 -0.09,-1.47 -0.32,-1.78 -0.68,-0.59 -0.73,1.39 -0.82,2.08 -0.11,0.88 -0.29,1.9 -0.35,2.8 -0.36,-0.5 -0.32,-1.98 -0.82,-2.06 -0.63,-0.09 -0.51,1.34 -0.87,1.95 -0.37,-0.02 -0.32,-0.09 -0.54,-0.86 -0.09,-0.3 -0.19,-0.88 -0.65,-0.58 -0.28,0.18 -0.51,1.66 -0.72,2.02 -0.23,-0.36 -0.41,-1.52 -0.76,-1.65 -0.66,-0.25 -0.5,1.08 -0.99,1.35 -0.38,-0.12 -0.13,-0.18 -0.35,-0.46 -0.52,-0.63 -0.85,0.94 -0.94,1.07 -0.12,-0.25 -0.15,-0.31 -0.33,-0.49 -0.33,0.01 -0.38,0.01 -0.5,0.27 -0.09,0.19 -0.18,0.38 -0.25,0.57 0.33,0.83 0.32,0.81 0.74,0.82 0.19,-0.2 0.2,-0.21 0.33,-0.49 0.12,0.18 0.36,1.69 0.93,1.07 0.07,-0.07 0.3,-0.96 0.61,-0.11 0.06,0.15 0.09,0.27 0.15,0.43 0.61,1.76 1.12,-0.72 1.35,-1.09 0.21,0.35 0.47,1.86 0.72,2.02 0.44,0.29 0.56,-0.27 0.66,-0.58 0.12,-0.39 0.11,-0.85 0.52,-0.85 0.39,0.53 0.22,2.04 0.88,1.94 0.5,-0.07 0.43,-1.51 0.8,-2.09l0.54 4.22c0.08,0.62 0.08,0.88 0.7,0.7 0.12,-0.49 0.19,-1.22 0.26,-1.78 0.08,-0.58 0.07,-1.65 0.45,-1.53 0.25,0.21 0.31,1.41 0.36,1.81 0.04,0.27 0.05,0.75 0.23,0.89 0.39,0.29 0.56,-0.15 0.6,-0.44 0.18,-1.29 0.35,-2.62 0.57,-3.91 0.19,0.39 0.41,1.99 0.61,2.18 0.43,0.42 0.6,-0.23 0.67,-0.52 0.08,-0.34 0.16,-0.85 0.33,-1.07 0.41,0.02 0.32,0.38 0.5,1.26 0.09,0.46 0.14,1.07 0.36,1.37 0.67,0.13 0.62,-0.72 0.73,-1.33 0.1,-0.54 0.19,-1.21 0.34,-1.74 0.04,0.48 0.54,3.74 0.66,4.01 0.81,0.19 0.68,-0.71 0.89,-2.13 0.05,-0.38 0,-0.68 0.3,-0.81 0.29,0.14 0.31,0.83 0.4,1.43 0.11,0.66 -0.02,1.12 0.74,1.02 0.31,-0.78 0.29,-2.43 0.6,-3.22 0.11,1.09 0.24,2.16 0.35,3.25 0.05,0.52 0.11,1.07 0.16,1.58 0.07,0.62 -0.05,1.23 0.68,1.02 0.19,-0.41 0.26,-1.84 0.33,-2.46 0.06,-0.52 0.16,-2.21 0.3,-2.54 0.02,1.64 0.29,4.46 0.41,6.31 0.04,0.54 -0.12,1.75 0.62,1.6 0.52,-0.11 0.39,-1.27 0.42,-1.79l0.42 -6.37c0.1,0.24 0.69,9.05 0.77,10.85 0.04,0.84 0.43,0.67 0.46,0.18l0.33 -5.15c0.05,-0.8 0.31,-5.44 0.41,-5.84 0.11,0.31 0.37,5.2 0.44,6.26 0.06,0.82 -0.03,1.75 0.43,1.85 0.72,0.15 0.58,-0.98 0.61,-1.53 0.05,-0.73 0.09,-1.43 0.14,-2.15 0.1,-1.35 0.25,-2.86 0.27,-4.22 0.21,0.57 0.36,4.36 0.62,5 0.74,0.19 0.61,-0.34 0.68,-0.96 0.05,-0.52 0.11,-1.06 0.16,-1.58 0.12,-1.1 0.21,-2.18 0.35,-3.27 0.25,0.55 0.36,2.74 0.58,3.08 0.13,0.2 0.47,0.21 0.6,-0.04 0.18,-0.34 0.18,-1.98 0.5,-2.29 0.37,0.05 0.29,0.33 0.35,0.74 0.05,0.36 0.09,0.62 0.14,0.95 0.05,0.3 0.08,0.7 0.15,0.98 0.09,0.38 0.48,0.44 0.65,0.18 0.07,-0.12 0.27,-1.64 0.31,-1.89l0.29 -1.82c0.05,-0.16 0.04,-0.09 0.07,-0.15l0.46 2.56c0.07,0.37 0.14,0.52 0.58,0.45 0.22,-0.31 0.4,-1.59 0.49,-2.09 0.07,-0.38 0.03,-0.52 0.36,-0.56 0.16,0.21 0.24,0.69 0.32,1.03 0.04,0.16 0.08,0.44 0.17,0.55 0.11,0.13 0.36,0.18 0.52,0.03 0.19,-0.19 0.42,-1.78 0.6,-2.18 0.29,1.3 0.34,3.26 0.69,4.37 0.78,0.1 0.63,-0.37 0.73,-1.09 0.05,-0.37 0.13,-1.43 0.32,-1.63 0.35,-0.04 0.31,0.2 0.35,0.54 0.04,0.3 0.08,0.61 0.12,0.92 0.07,0.56 0.13,1.36 0.27,1.84 0.79,0.24 0.64,-0.33 0.87,-2.08 0.12,-0.92 0.27,-1.91 0.36,-2.83 0.3,0.49 0.33,2.02 0.8,2.09 0.6,0.09 0.5,-1.19 0.87,-1.95 0.43,0.02 0.41,0.45 0.53,0.86 0.1,0.32 0.21,0.86 0.66,0.58 0.27,-0.18 0.5,-1.63 0.72,-2.01 0.32,0.49 0.43,1.83 0.99,1.65 0.27,-0.09 0.38,-0.68 0.53,-1.05 0.1,-0.27 0.05,-0.25 0.3,-0.3 0.39,0.23 -0,0.64 0.74,0.54 0.29,-0.42 0.28,-0.79 0.48,-1.16 0.21,0.54 0.61,0.73 0.87,0.13 0.07,-0.16 0.13,-0.28 0.2,-0.45z"/>
  </g>
 </g>
</svg>
