<?xml version="1.0" encoding="UTF-8"?>
<!DOCTYPE svg PUBLIC "-//W3C//DTD SVG 1.1//EN" "http://www.w3.org/Graphics/SVG/1.1/DTD/svg11.dtd">
<!-- Creator: CorelDRAW -->
<svg xmlns="http://www.w3.org/2000/svg" xml:space="preserve" width="1.30459in" height="1.30459in" version="1.1" style="shape-rendering:geometricPrecision; text-rendering:geometricPrecision; image-rendering:optimizeQuality; fill-rule:evenodd; clip-rule:evenodd"
viewBox="0 0 130.08 130.08"
 xmlns:xlink="http://www.w3.org/1999/xlink"
 xmlns:xodm="http://www.corel.com/coreldraw/odm/2003">
 <defs>
  <style type="text/css">
   <![CDATA[
    .fil1 {fill:#F8F9FD}
    .fil0 {fill:#FF6764}
   ]]>
  </style>
 </defs>
 <g id="Layer_x0020_1">
  <metadata id="CorelCorpID_0Corel-Layer"/>
  <g id="_1607975381952">
   <rect class="fil0" x="-0" y="-0" width="130.08" height="130.08" rx="29.23" ry="29.23"/>
   <path class="fil1" d="M29.98 20.92l70.13 0c1.54,0 3.02,0.31 4.36,0.87 1.4,0.58 2.67,1.44 3.72,2.48 1.05,1.05 1.9,2.31 2.49,3.72 0.56,1.35 0.87,2.83 0.87,4.36l0 50.42c0,1.54 -0.31,3.02 -0.87,4.36 -0.58,1.4 -1.44,2.67 -2.49,3.72 -1.05,1.05 -2.32,1.9 -3.72,2.48 -1.35,0.56 -2.83,0.87 -4.36,0.87l-25.11 0c0.17,1.63 0.5,3.76 1.16,5.64 0.47,1.34 1.11,2.55 1.97,3.31l4.46 0c0.83,0 1.58,0.34 2.13,0.88 0.54,0.54 0.88,1.3 0.88,2.13 0,0.83 -0.34,1.58 -0.88,2.13 -0.54,0.54 -1.3,0.88 -2.13,0.88l-34.75 0c-0.83,0 -1.58,-0.34 -2.12,-0.88 -0.54,-0.54 -0.88,-1.3 -0.88,-2.13 0,-0.83 0.34,-1.58 0.88,-2.13 0.54,-0.54 1.3,-0.88 2.12,-0.88l4.15 0c0.85,-0.76 1.49,-1.97 1.97,-3.31 0.66,-1.88 0.99,-4 1.16,-5.64l-25.11 0c-1.54,0 -3.02,-0.31 -4.36,-0.87 -1.4,-0.58 -2.67,-1.44 -3.72,-2.48 -1.05,-1.05 -1.9,-2.31 -2.49,-3.72 -0.56,-1.35 -0.87,-2.83 -0.87,-4.36l0 -50.42c0,-1.54 0.31,-3.02 0.87,-4.36 0.58,-1.4 1.44,-2.67 2.49,-3.72 1.05,-1.05 2.32,-1.9 3.72,-2.48 1.35,-0.56 2.83,-0.87 4.36,-0.87zm22.6 18.81c0.34,-0.25 0.75,-0.34 1.14,-0.28 0.39,0.06 0.75,0.26 1.01,0.6 0.25,0.34 0.34,0.75 0.28,1.14 -0.06,0.39 -0.26,0.75 -0.6,1l-11.47 8.5 11.47 8.5c0.34,0.25 0.55,0.62 0.6,1 0.06,0.39 -0.03,0.8 -0.28,1.14 -0.25,0.34 -0.62,0.55 -1.01,0.6 -0.39,0.06 -0.8,-0.03 -1.14,-0.29l-13.12 -9.72 -0.17 -0.15c-0.05,-0.05 -0.11,-0.12 -0.16,-0.18l-0.01 -0.01c-0.25,-0.34 -0.34,-0.75 -0.28,-1.13 0.06,-0.39 0.26,-0.75 0.6,-1l13.13 -9.73zm15.49 -6.72c0.11,-0.41 0.37,-0.73 0.71,-0.93 0.34,-0.2 0.76,-0.26 1.16,-0.15 0.41,0.11 0.74,0.37 0.93,0.71 0.2,0.34 0.26,0.76 0.16,1.16l-9.28 34.62c-0.11,0.41 -0.38,0.74 -0.71,0.93 -0.31,0.18 -0.69,0.25 -1.07,0.18l-0.09 -0.02c-0.41,-0.11 -0.73,-0.37 -0.93,-0.71 -0.18,-0.32 -0.25,-0.7 -0.18,-1.07 0,-2.56 8,-29.85 9.3,-34.71zm8.3 6.43c0.39,-0.06 0.8,0.03 1.14,0.28 2.78,2.06 11.33,7.79 13.18,9.77 0.31,0.25 0.5,0.6 0.55,0.96 0.06,0.39 -0.03,0.79 -0.28,1.13 -0.05,0.07 -0.1,0.12 -0.16,0.18l-0.17 0.15 -13.12 9.72c-0.34,0.25 -0.75,0.34 -1.14,0.29 -0.39,-0.06 -0.75,-0.26 -1.01,-0.6 -0.25,-0.34 -0.34,-0.75 -0.28,-1.14 0.06,-0.39 0.26,-0.75 0.6,-1l11.47 -8.5 -11.47 -8.5c-0.34,-0.25 -0.55,-0.62 -0.6,-1 -0.06,-0.39 0.03,-0.8 0.28,-1.14 0.25,-0.34 0.62,-0.55 1.01,-0.6zm-6.76 54.76l-9.13 0c-0.15,1.47 -0.42,3.41 -0.95,5.39 -0.31,1.2 -0.72,2.41 -1.24,3.56l13.51 0c-0.52,-1.15 -0.93,-2.36 -1.24,-3.56 -0.52,-1.98 -0.8,-3.91 -0.95,-5.39zm-45.68 -19.49l82.23 0 0 -42.36c0,-0.81 -0.17,-1.6 -0.46,-2.3 -0.31,-0.73 -0.76,-1.4 -1.32,-1.97 -0.56,-0.56 -1.23,-1.02 -1.96,-1.32 -0.71,-0.29 -1.49,-0.46 -2.31,-0.46l-70.13 0c-0.82,0 -1.6,0.16 -2.31,0.46 -0.73,0.31 -1.4,0.76 -1.96,1.32 -0.56,0.56 -1.02,1.23 -1.32,1.97 -0.29,0.71 -0.46,1.49 -0.46,2.3l0 42.36zm82.23 5.39l-82.23 0 0 2.67c0,0.81 0.16,1.6 0.46,2.3 0.3,0.73 0.76,1.4 1.32,1.97 0.56,0.56 1.23,1.02 1.96,1.32 0.71,0.29 1.49,0.46 2.31,0.46l70.13 0c0.82,0 1.6,-0.16 2.31,-0.46 0.73,-0.31 1.4,-0.76 1.96,-1.32 0.56,-0.56 1.02,-1.23 1.32,-1.97 0.29,-0.71 0.46,-1.49 0.46,-2.3l0 -2.67z"/>
  </g>
 </g>
</svg>
