<?xml version="1.0" encoding="UTF-8"?>
<!DOCTYPE svg PUBLIC "-//W3C//DTD SVG 1.1//EN" "http://www.w3.org/Graphics/SVG/1.1/DTD/svg11.dtd">
<!-- Creator: CorelDRAW -->
<svg xmlns="http://www.w3.org/2000/svg" xml:space="preserve" width="1.30459in" height="1.30459in" version="1.1" style="shape-rendering:geometricPrecision; text-rendering:geometricPrecision; image-rendering:optimizeQuality; fill-rule:evenodd; clip-rule:evenodd"
viewBox="0 0 243.19 243.19"
 xmlns:xlink="http://www.w3.org/1999/xlink"
 xmlns:xodm="http://www.corel.com/coreldraw/odm/2003">
 <defs>
  <style type="text/css">
   <![CDATA[
    .fil1 {fill:#F8F9FD}
    .fil0 {fill:#FF6764}
   ]]>
  </style>
 </defs>
 <g id="Layer_x0020_1">
  <metadata id="CorelCorpID_0Corel-Layer"/>
  <g id="_1607975376720">
   <rect class="fil0" x="0" y="-0" width="243.19" height="243.19" rx="54.66" ry="54.66"/>
   <g>
    <g>
     <path class="fil1" d="M86.12 174.56c-1.44,1.45 -6.77,3.68 -6.8,11.36 -0.02,5.5 3.38,9.55 6.85,11.36 4.43,2.3 11.27,1.47 16.79,1.47l36.78 0c5.36,0 12.82,0.77 17.13,-1.38 3.5,-1.74 6.92,-5.82 7.01,-11.2 0.04,-2.69 -0.78,-5.2 -2.01,-7.07 -2.05,-3.14 -3.06,-2.92 -4.81,-4.53 1.95,-6.7 8.81,-18.19 9.2,-25.67 0.44,-8.54 -3.41,-13.13 -7.9,-18.38 -1.45,-1.7 -2.56,-3.1 -4.03,-4.85 -2.68,-3.2 -5.26,-6.38 -7.94,-9.58l-15.91 -19.15c-1.35,-1.57 -2.52,-3.08 -3.91,-4.73 -1.18,-1.39 -2.51,-3.82 -5.09,-3.73 -2.91,0.1 -6.1,5.47 -8.88,8.59 -1.35,1.52 -2.58,3.05 -3.93,4.71l-15.88 19.17c-1.34,1.65 -2.72,3.38 -4.01,4.87 -1.4,1.61 -2.58,3.22 -3.89,4.75 -4.5,5.27 -8.36,9.52 -7.96,18.28 0.23,5.03 2.48,9.21 4.15,13.3l5.06 12.42zm8.44 -1.43l54.3 -0.01c0.81,-0.92 7.14,-16.89 8.19,-19.49 2.58,-6.4 1.41,-10.82 -2.77,-15.6 -1.09,-1.25 -2.16,-2.6 -3.23,-3.92l-12.65 -15.24c-1.28,-1.51 -11.63,-14.39 -12.8,-15.18 -0.33,8.79 -0.06,20.85 -0.05,30.04 5.82,1.56 11.49,7.76 10.35,15.78 -2.34,16.56 -26.24,16.46 -28.61,0.18 -0.82,-5.65 1.63,-10.78 5.86,-13.79 1.53,-1.09 2.92,-1.4 4.41,-2.31 0.35,-5.91 0.1,-22.69 0.04,-29.88 -0.75,0.44 -0.38,0.21 -0.96,0.89l-11.86 14.3c-4.32,5.17 -8.44,10.03 -12.67,15.23 -4.05,4.98 -9.92,9.73 -6,19.51l7.55 18.37c0.36,0.85 0.28,0.81 0.89,1.13zm-3.55 8.13c-2.38,0.69 -4.5,2.63 -3.57,6.07 0.74,2.77 3.14,3.53 6.38,3.52 6.56,-0.02 56.82,0.36 58.72,-0.26 4.6,-1.51 5.55,-9.59 -2.93,-9.55 -6.67,0.03 -56.61,-0.35 -58.59,0.22zm29.64 -40.17c-8.69,1.42 -6.52,14.2 1.99,12.91 3.17,-0.48 6.04,-3.63 5.41,-7.51 -0.51,-3.13 -3.57,-6.01 -7.4,-5.39z"/>
    </g>
    <path class="fil1" d="M65.76 62.51l28.62 -0.04 -1.15 1.68c-0.29,0.43 -2.33,1.83 -3.9,2.91 -0.77,0.53 -1.43,0.98 -1.61,1.12 -0.92,0.71 -1.79,1.42 -2.61,2.11 -0.8,0.68 -1.59,1.39 -2.38,2.14 -1.38,1.31 -2.85,2.88 -4.26,4.61 -1.38,1.68 -2.72,3.5 -3.92,5.36 -2.58,3.97 -4.56,7.96 -6.03,12.36 -1.48,4.41 -2.45,9.27 -3.01,14.97l-0.07 0.73 -0.7 0.2c-2.61,0.75 -5.09,2.59 -6.69,5.15 -1.41,2.26 -2.13,5.09 -1.63,8.21 0.66,4.1 2.97,6.95 5.91,8.51 1.8,0.95 3.83,1.44 5.86,1.46 2.03,0.02 4.07,-0.44 5.88,-1.36 2.96,-1.52 5.31,-4.33 6.04,-8.44 0.28,-1.59 0.21,-3.13 -0.09,-4.54 -0.35,-1.63 -1.01,-3.1 -1.8,-4.31 -0.76,-1.15 -1.55,-1.98 -2.51,-2.69 -0.99,-0.72 -2.19,-1.33 -3.73,-2.01l-0.68 -0.3 0.04 -0.74c0.25,-5.18 1.53,-10.32 3.36,-14.95 2.11,-5.37 4.97,-10.09 7.83,-13.47 1.57,-1.86 3.06,-3.48 4.67,-5.01 1.62,-1.54 3.37,-2.99 5.46,-4.49 1.19,-0.85 4.88,-3.11 8.18,-4.71 2.2,-1.07 4.3,-1.87 5.53,-1.83l1.04 0.03 0 1.04c0.01,1.81 0.31,3.26 0.92,4.39 0.58,1.08 1.45,1.89 2.61,2.47 1.86,0.93 5.55,0.84 8.58,0.76l2.21 -0.04c0.73,0 1.71,0.02 2.67,0.04 6.18,0.13 10.91,0.23 11.45,-7.81l0.08 -1.14 1.13 0.14c1.38,0.17 3.42,1 5.52,2.04 3.01,1.48 6.21,3.42 7.65,4.4 6.03,4.12 11.39,9.97 15.27,16.8 3.66,6.44 6.01,13.76 6.38,21.34l0.04 0.75 -0.7 0.29c-4.24,1.77 -6.71,4.61 -7.74,7.72 -0.65,1.98 -0.73,4.08 -0.31,6.07 0.42,2 1.35,3.9 2.68,5.47 2.12,2.51 5.3,4.19 9.18,4.15 4.27,-0.04 7.49,-1.96 9.48,-4.7 1.18,-1.62 1.94,-3.53 2.24,-5.51 0.3,-1.98 0.14,-4.04 -0.51,-5.92 -1.1,-3.19 -3.64,-5.97 -7.78,-7.29l-0.65 -0.21 -0.09 -0.68c-0.77,-6.03 -1.65,-10.75 -3.04,-15.01 -1.37,-4.24 -3.25,-8.06 -6.04,-12.34 -1.94,-2.98 -3.88,-5.49 -6,-7.75 -2.12,-2.27 -4.41,-4.31 -7.05,-6.34l-1.76 -1.24c-1.6,-1.11 -3.63,-2.52 -3.88,-2.89l-1.13 -1.67 29.35 -0.01 0.26 0.7c0.85,2.27 1.51,3.83 2.34,5.1 0.81,1.24 1.8,2.26 3.34,3.48 2.69,2.14 5.88,3.12 9.05,3.1 2.32,-0.01 4.63,-0.55 6.74,-1.55 2.1,-1 3.98,-2.45 5.45,-4.3 1.99,-2.49 3.22,-5.71 3.2,-9.47 -0.02,-3.92 -1.46,-7.39 -3.78,-10.02 -2.43,-2.76 -5.83,-4.6 -9.54,-5.08 -3.99,-0.52 -7.62,0.54 -10.49,2.51 -3.18,2.18 -5.42,5.46 -6.18,8.9l-0.18 0.84 -42.56 0.02 -0 -1.07c-0,-2.3 -0.03,-4.21 -0.42,-5.72 -0.36,-1.38 -1.05,-2.47 -2.37,-3.33 -2.2,-1.43 -5.57,-1.33 -8.85,-1.24 -0.89,0.02 -1.78,0.05 -2.44,0.05 -0.7,0 -1.61,-0.03 -2.53,-0.06 -3.24,-0.11 -6.73,-0.22 -8.86,1.16 -1.38,0.89 -2.11,1.91 -2.48,3.23 -0.41,1.46 -0.45,3.34 -0.43,5.81l0.01 1.07 -42.57 0.12 -0.19 -0.83c-0.79,-3.45 -3.05,-6.75 -6.25,-8.94 -2.87,-1.96 -6.49,-3.02 -10.51,-2.49 -3.66,0.48 -7.03,2.34 -9.46,5.1 -2.31,2.64 -3.77,6.1 -3.78,9.98 -0.01,3.72 1.19,6.89 3.12,9.36 1.47,1.88 3.37,3.37 5.49,4.39 2.12,1.02 4.46,1.57 6.8,1.57 3.11,0.01 6.24,-0.94 8.88,-3 1.46,-1.14 2.51,-2.17 3.39,-3.46 0.89,-1.3 1.62,-2.9 2.42,-5.17l0.25 -0.71 0.76 -0zm-25.1 -5.08c0.66,-3.31 3.06,-6.27 7.58,-7.17l0.12 -0.02c2.76,-0.52 5.24,0.23 7.15,1.65 1.92,1.43 3.25,3.57 3.7,5.81l0.02 0.08c0.55,2.83 -0.18,5.39 -1.61,7.35 -1.43,1.95 -3.55,3.31 -5.81,3.77l-0.06 0.02c-4.37,0.84 -7.7,-1.03 -9.58,-3.89 -0.73,-1.1 -1.23,-2.35 -1.49,-3.65 -0.26,-1.29 -0.27,-2.64 -0.01,-3.93zm143.33 0.12c0.62,-3.33 2.98,-6.32 7.46,-7.24 4.39,-0.9 7.65,0.86 9.51,3.63 0.73,1.09 1.24,2.33 1.5,3.62 0.26,1.29 0.29,2.64 0.07,3.93 -0.59,3.38 -2.89,6.43 -7.16,7.35 -4.45,0.96 -7.84,-0.86 -9.77,-3.69 -0.75,-1.1 -1.27,-2.35 -1.55,-3.65 -0.27,-1.3 -0.3,-2.65 -0.06,-3.96zm-15.15 63.05c0.46,-2.19 2.07,-4.13 5.05,-4.68 1.74,-0.32 3.32,0.09 4.55,0.93 1.36,0.93 2.3,2.39 2.6,3.96l0.01 0.04c0.35,1.88 -0.14,3.57 -1.07,4.86 -0.93,1.28 -2.32,2.18 -3.77,2.45l-0.04 0.01c-2.95,0.54 -5.17,-0.72 -6.4,-2.62 -0.46,-0.72 -0.78,-1.54 -0.94,-2.39 -0.16,-0.85 -0.16,-1.73 0.02,-2.56zm-106.81 1.11c0.07,-2.19 1.27,-4.33 4.05,-5.44l0.21 -0.08c1.81,-0.65 3.51,-0.4 4.88,0.33 1.35,0.71 2.38,1.92 2.88,3.17l0.06 0.17c0.62,1.71 0.46,3.36 -0.16,4.73 -0.7,1.57 -2.02,2.77 -3.49,3.32 -2.7,1.01 -5.07,0.17 -6.62,-1.45 -0.6,-0.63 -1.07,-1.39 -1.39,-2.2 -0.31,-0.81 -0.47,-1.68 -0.45,-2.55zm66.68 -53.71l-15.35 0.01 -0.1 -16.74 16.63 -0.03 -0.12 16.75 -1.07 0z"/>
   </g>
  </g>
 </g>
</svg>
