<?xml version="1.0" encoding="UTF-8"?>
<!DOCTYPE svg PUBLIC "-//W3C//DTD SVG 1.1//EN" "http://www.w3.org/Graphics/SVG/1.1/DTD/svg11.dtd">
<!-- Creator: CorelDRAW -->
<svg xmlns="http://www.w3.org/2000/svg" xml:space="preserve" width="1.11427in" height="1.31452in" version="1.1" style="shape-rendering:geometricPrecision; text-rendering:geometricPrecision; image-rendering:optimizeQuality; fill-rule:evenodd; clip-rule:evenodd"
viewBox="0 0 59.18 69.82"
 xmlns:xlink="http://www.w3.org/1999/xlink"
 xmlns:xodm="http://www.corel.com/coreldraw/odm/2003">
 <defs>
  <style type="text/css">
   <![CDATA[
    .fil2 {fill:#5F51DC}
    .fil0 {fill:#FF6764}
    .fil1 {fill:white}
   ]]>
  </style>
 </defs>
 <g id="Layer_x0020_1">
  <metadata id="CorelCorpID_0Corel-Layer"/>
  <g id="_1607974756144">
   <path class="fil0" d="M29.59 19.14c-16.34,0 -29.59,11.64 -29.59,26 0,10.53 6.5,21.8 17.36,23.68 3.87,0.67 8.05,1.02 12.23,1 4.18,0.02 8.36,-0.33 12.23,-1 10.86,-1.88 17.36,-13.15 17.36,-23.68 0,-14.36 -13.25,-26 -29.59,-26z"/>
   <path class="fil0" d="M29.59 0c-2.22,0 -4.43,1.71 -6.26,5.14 -0.07,0.13 -0.17,0.21 -0.31,0.24 -0.14,0.03 -0.27,0.01 -0.39,-0.08 -3.21,-2.3 -6.02,0.65 -4.64,2.52 0.71,0.97 3.7,3.26 5.54,5.79 1.85,2.54 2.54,6.56 2.54,6.56l3.52 0 3.52 0c0,0 0.7,-4.02 2.54,-6.56 1.84,-2.53 4.82,-4.82 5.54,-5.79 1.37,-1.87 -1.43,-4.81 -4.64,-2.52 -0.12,0.08 -0.25,0.11 -0.39,0.08 -0.14,-0.03 -0.25,-0.12 -0.31,-0.24 -1.82,-3.43 -4.04,-5.14 -6.26,-5.14z"/>
   <path class="fil1" d="M37.26 48.76c0,1.75 -0.56,3.27 -1.68,4.58 -1.13,1.32 -2.67,2.19 -4.62,2.63l0 3.75c0,0.5 -0.41,0.91 -0.91,0.91l-1.69 0c-0.5,0 -0.91,-0.41 -0.91,-0.91l0 -3.48c-1.18,-0.03 -2.44,-0.15 -3.79,-0.36 -0.47,-0.07 -0.8,-0.49 -0.76,-0.97l0.2 -2.47c0.02,-0.28 0.15,-0.51 0.38,-0.67 0.23,-0.16 0.49,-0.21 0.76,-0.14 1.18,0.32 2.45,0.47 3.79,0.47 2.72,0 4.08,-0.95 4.08,-2.85 0,-0.92 -0.53,-1.68 -1.6,-2.3l-3.5 -1.49c-3.39,-1.42 -5.09,-3.59 -5.09,-6.52 0,-1.7 0.55,-3.17 1.66,-4.4 1.09,-1.23 2.56,-2.02 4.38,-2.37l0 -2.95c0,-0.5 0.41,-0.91 0.91,-0.91l1.65 0c0.5,0 0.91,0.41 0.91,0.91l0 2.69c1.08,0.03 2.1,0.13 3.08,0.3 0.46,0.08 0.78,0.49 0.75,0.96l-0.17 2.28c-0.02,0.27 -0.15,0.5 -0.37,0.66 -0.22,0.16 -0.47,0.21 -0.74,0.15 -1.16,-0.26 -2.23,-0.39 -3.21,-0.39 -2.54,0 -3.82,0.85 -3.82,2.56 0,0.85 0.54,1.58 1.62,2.19l3.54 1.53c3.43,1.48 5.14,3.68 5.14,6.58z"/>
   <rect class="fil2" x="21.7" y="15.08" width="15.78" height="5.1" rx="2.55" ry="2.55"/>
  </g>
 </g>
</svg>
