<?xml version="1.0" encoding="UTF-8"?>
<!DOCTYPE svg PUBLIC "-//W3C//DTD SVG 1.1//EN" "http://www.w3.org/Graphics/SVG/1.1/DTD/svg11.dtd">
<!-- Creator: CorelDRAW -->
<svg xmlns="http://www.w3.org/2000/svg" xml:space="preserve" width="1.1227in" height="0.919476in" version="1.1" style="shape-rendering:geometricPrecision; text-rendering:geometricPrecision; image-rendering:optimizeQuality; fill-rule:evenodd; clip-rule:evenodd"
viewBox="0 0 45.34 37.14"
 xmlns:xlink="http://www.w3.org/1999/xlink"
 xmlns:xodm="http://www.corel.com/coreldraw/odm/2003">
 <defs>
  <style type="text/css">
   <![CDATA[
    .fil2 {fill:white}
    .fil0 {fill:#5F51DC;fill-rule:nonzero}
    .fil1 {fill:#FF6764;fill-rule:nonzero}
   ]]>
  </style>
 </defs>
 <g id="Layer_x0020_1">
  <metadata id="CorelCorpID_0Corel-Layer"/>
  <g id="_2707342722272">
   <path class="fil0" d="M9.56 25.07c-5.28,0 -9.56,4.28 -9.56,9.56 0,1.39 1.12,2.51 2.51,2.51l8.89 0c-1.19,-0.87 -1.97,-2.27 -1.97,-3.86 0,-2.92 0.8,-5.65 2.19,-7.98 -0.66,-0.15 -1.35,-0.22 -2.06,-0.22zm5.15 -6.91c0,2.84 -2.31,5.15 -5.15,5.15 -2.85,0 -5.15,-2.31 -5.15,-5.15 0,-2.85 2.31,-5.15 5.15,-5.15 2.84,0 5.15,2.31 5.15,5.15z"/>
   <path class="fil1" d="M25.04 18.57c-8.13,0 -14.71,6.59 -14.71,14.71 0,2.13 1.73,3.86 3.86,3.86l20.17 0c-2.51,-1.37 -4.21,-4.04 -4.21,-7.1 0,-3.36 2.05,-6.25 4.97,-7.47 -2.63,-2.48 -6.18,-4 -10.08,-4zm7.93 -10.64c0,4.38 -3.55,7.93 -7.93,7.93 -4.38,0 -7.93,-3.55 -7.93,-7.93 0,-4.38 3.55,-7.93 7.93,-7.93 4.38,0 7.93,3.55 7.93,7.93z"/>
   <g>
    <path class="fil0" d="M45.34 30.03c0,3.92 -3.18,7.1 -7.1,7.1 -3.92,0 -7.1,-3.18 -7.1,-7.1 0,-3.92 3.18,-7.1 7.1,-7.1 3.92,0 7.1,3.18 7.1,7.1z"/>
    <path class="fil2" d="M40.29 31.18c0,0.47 -0.15,0.88 -0.45,1.23 -0.3,0.35 -0.71,0.59 -1.24,0.7l0 1c0,0.13 -0.11,0.24 -0.24,0.24l-0.45 0c-0.13,0 -0.24,-0.11 -0.24,-0.24l0 -0.93c-0.32,-0.01 -0.65,-0.04 -1.02,-0.1 -0.13,-0.02 -0.21,-0.13 -0.2,-0.26l0.05 -0.66c0.01,-0.07 0.04,-0.14 0.1,-0.18 0.06,-0.04 0.13,-0.06 0.2,-0.04 0.32,0.08 0.66,0.13 1.02,0.13 0.73,0 1.09,-0.25 1.09,-0.76 0,-0.25 -0.14,-0.45 -0.43,-0.61l-0.94 -0.4c-0.91,-0.38 -1.36,-0.96 -1.36,-1.74 0,-0.46 0.15,-0.85 0.44,-1.18 0.29,-0.33 0.68,-0.54 1.17,-0.63l0 -0.79c0,-0.13 0.11,-0.24 0.24,-0.24l0.44 0c0.13,0 0.24,0.11 0.24,0.24l0 0.72c0.29,0.01 0.56,0.03 0.83,0.08 0.12,0.02 0.21,0.13 0.2,0.26l-0.05 0.61c-0.01,0.07 -0.04,0.13 -0.1,0.18 -0.06,0.04 -0.13,0.06 -0.2,0.04 -0.31,-0.07 -0.6,-0.11 -0.86,-0.11 -0.68,0 -1.02,0.23 -1.02,0.68 0,0.23 0.14,0.42 0.43,0.59l0.95 0.41c0.92,0.4 1.38,0.98 1.38,1.76z"/>
   </g>
  </g>
 </g>
</svg>
