<?xml version="1.0" encoding="UTF-8"?>
<!DOCTYPE svg PUBLIC "-//W3C//DTD SVG 1.1//EN" "http://www.w3.org/Graphics/SVG/1.1/DTD/svg11.dtd">
<!-- Creator: CorelDRAW -->
<svg xmlns="http://www.w3.org/2000/svg" xml:space="preserve" width="0.566236in" height="0.967528in" version="1.1" style="shape-rendering:geometricPrecision; text-rendering:geometricPrecision; image-rendering:optimizeQuality; fill-rule:evenodd; clip-rule:evenodd"
viewBox="0 0 31.05 53.06"
 xmlns:xlink="http://www.w3.org/1999/xlink"
 xmlns:xodm="http://www.corel.com/coreldraw/odm/2003">
 <defs>
  <style type="text/css">
   <![CDATA[
    .fil0 {fill:#FF6764}
   ]]>
  </style>
 </defs>
 <g id="Layer_x0020_1">
  <metadata id="CorelCorpID_0Corel-Layer"/>
  <path class="fil0" d="M0.13 29.08l18.04 -28.7c0.2,-0.32 0.57,-0.46 0.93,-0.35 0.36,0.1 0.6,0.42 0.6,0.79l0 21.89 10.53 0c0.31,0 0.57,0.16 0.72,0.43 0.15,0.27 0.14,0.58 -0.02,0.84l-18.04 28.7c-0.2,0.32 -0.57,0.46 -0.93,0.35 -0.36,-0.1 -0.6,-0.42 -0.6,-0.79l0 -21.89 -10.53 0c-0.31,0 -0.57,-0.16 -0.72,-0.43 -0.15,-0.27 -0.14,-0.58 0.02,-0.84z"/>
 </g>
</svg>
