<?xml version="1.0" encoding="UTF-8"?>
<!DOCTYPE svg PUBLIC "-//W3C//DTD SVG 1.1//EN" "http://www.w3.org/Graphics/SVG/1.1/DTD/svg11.dtd">
<!-- Creator: CorelDRAW -->
<svg xmlns="http://www.w3.org/2000/svg" xml:space="preserve" width="1.30459in" height="1.30459in" version="1.1" style="shape-rendering:geometricPrecision; text-rendering:geometricPrecision; image-rendering:optimizeQuality; fill-rule:evenodd; clip-rule:evenodd"
viewBox="0 0 67.39 67.39"
 xmlns:xlink="http://www.w3.org/1999/xlink"
 xmlns:xodm="http://www.corel.com/coreldraw/odm/2003">
 <defs>
  <style type="text/css">
   <![CDATA[
    .fil1 {fill:#F8F9FD}
    .fil0 {fill:#FF6764}
   ]]>
  </style>
 </defs>
 <g id="Layer_x0020_1">
  <metadata id="CorelCorpID_0Corel-Layer"/>
  <g id="_1607968943536">
   <rect class="fil0" x="-0" y="-0" width="67.39" height="67.39" rx="15.15" ry="15.15"/>
   <path class="fil1" d="M51.25 17.39l2.77 10.32c0.18,0.69 0.1,1.35 -0.26,1.97l-14.03 24.3c-1.29,2.24 -3.63,3.33 -5.19,2.42l-3.99 -2.3c-1.24,-0.71 -1.66,-2.31 -0.95,-3.54l4.36 -7.56 3.72 2.15 0.65 -18.31 -15.54 9.72 3.72 2.15 -4.36 7.56c-0.71,1.24 -2.31,1.66 -3.54,0.95l-3.99 -2.3c-1.56,-0.9 -1.79,-3.47 -0.5,-5.71l14.03 -24.3c0.36,-0.62 0.89,-1.02 1.58,-1.21l10.32 -2.77c1.9,-0.51 3.72,-0.27 5.42,0.71l2.44 1.41c1.7,0.98 2.82,2.44 3.33,4.34zm-7.83 0.63c1.44,0.83 1.93,2.66 1.1,4.1 -0.83,1.44 -2.66,1.93 -4.1,1.1 -1.44,-0.83 -1.93,-2.66 -1.1,-4.1 0.83,-1.44 2.66,-1.93 4.1,-1.1z"/>
  </g>
 </g>
</svg>
