<?xml version="1.0" encoding="UTF-8"?>
<!DOCTYPE svg PUBLIC "-//W3C//DTD SVG 1.1//EN" "http://www.w3.org/Graphics/SVG/1.1/DTD/svg11.dtd">
<!-- Creator: CorelDRAW -->
<svg xmlns="http://www.w3.org/2000/svg" xml:space="preserve" width="1.29449in" height="1.29449in" version="1.1" style="shape-rendering:geometricPrecision; text-rendering:geometricPrecision; image-rendering:optimizeQuality; fill-rule:evenodd; clip-rule:evenodd"
viewBox="0 0 79.2 79.2"
 xmlns:xlink="http://www.w3.org/1999/xlink"
 xmlns:xodm="http://www.corel.com/coreldraw/odm/2003">
 <defs>
  <style type="text/css">
   <![CDATA[
    .fil0 {fill:#5F51DC}
    .fil1 {fill:#FF6764}
   ]]>
  </style>
 </defs>
 <g id="Layer_x0020_1">
  <metadata id="CorelCorpID_0Corel-Layer"/>
  <g id="_1607975878400">
   <path class="fil0" d="M71.57 7.63l-1.07 -7.63 -10.57 10.57c-0.32,0.32 -0.45,0.74 -0.38,1.18l0.85 4.9 -26.1 26.1c-0.64,0.64 -1.19,1.84 -0.44,2.59 0.8,0.8 2.11,0.04 2.76,-0.61l25.92 -25.92 4.9 0.85c0.45,0.08 0.86,-0.06 1.19,-0.38l10.57 -10.57 -7.63 -1.07z"/>
   <path class="fil1" d="M29.25 49.94c2.54,2.54 6.66,2.54 9.2,0 1.46,-1.46 2.08,-3.44 1.86,-5.34l-1.91 1.91c-1.68,1.68 -4.45,2.5 -6.34,0.61 -1.79,-1.79 -1.2,-4.53 0.44,-6.17l2.09 -2.09c-1.9,-0.22 -3.88,0.41 -5.34,1.86 -2.54,2.54 -2.54,6.66 0,9.2zm-19.34 19.34c13.22,13.22 34.66,13.22 47.88,0 12.25,-12.25 13.15,-31.56 2.69,-44.84l-4.77 4.77c7.87,10.63 6.98,25.7 -2.65,35.34 -10.61,10.61 -27.81,10.61 -38.42,0 -10.61,-10.61 -10.61,-27.81 0,-38.42 9.63,-9.63 24.71,-10.52 35.34,-2.65l4.77 -4.77c-13.29,-10.45 -32.59,-9.56 -44.84,2.69 -13.22,13.22 -13.22,34.66 0,47.88zm9.55 -9.55c7.94,7.94 20.83,7.94 28.77,0 6.96,-6.96 7.82,-17.72 2.58,-25.62l-4.89 4.89c2.7,5.14 1.89,11.65 -2.43,15.98 -5.32,5.32 -13.95,5.32 -19.28,0 -5.32,-5.32 -5.32,-13.95 0,-19.28 4.33,-4.33 10.84,-5.14 15.98,-2.43l4.89 -4.89c-7.9,-5.24 -18.66,-4.38 -25.62,2.58 -7.94,7.94 -7.94,20.83 0,28.77z"/>
  </g>
 </g>
</svg>
