<?xml version="1.0" encoding="UTF-8"?>
<!DOCTYPE svg PUBLIC "-//W3C//DTD SVG 1.1//EN" "http://www.w3.org/Graphics/SVG/1.1/DTD/svg11.dtd">
<!-- Creator: CorelDRAW -->
<svg xmlns="http://www.w3.org/2000/svg" xml:space="preserve" width="1.29016in" height="1.29016in" version="1.1" style="shape-rendering:geometricPrecision; text-rendering:geometricPrecision; image-rendering:optimizeQuality; fill-rule:evenodd; clip-rule:evenodd"
viewBox="0 0 78.68 78.68"
 xmlns:xlink="http://www.w3.org/1999/xlink"
 xmlns:xodm="http://www.corel.com/coreldraw/odm/2003">
 <defs>
  <style type="text/css">
   <![CDATA[
    .fil1 {fill:#5F51DC}
    .fil0 {fill:#FF6764}
   ]]>
  </style>
 </defs>
 <g id="Layer_x0020_1">
  <metadata id="CorelCorpID_0Corel-Layer"/>
  <g id="_1607975949728">
   <rect class="fil0" x="-0" y="-0" width="78.68" height="78.68" rx="14.96" ry="14.96"/>
   <path class="fil1" d="M35.04 43.97l-2.45 -2.8c-1.88,-2.07 -4.43,-4.92 -6.84,-6.32 -1.54,-0.9 -2.86,-1.3 -4.65,-1.22 -2.09,0.08 -3.52,1.33 -4.46,2.94 -1.52,2.6 -1.39,5.94 0.19,8.47 1.56,2.49 5.7,6.85 7.78,9.19 0.28,0.31 1.06,1.17 1.81,1.94 2.61,2.69 5.67,5.69 9.87,5.06 3.48,-0.52 5.3,-4.69 6.75,-7.52 2.19,-4.3 3.87,-8.61 6.05,-12.89 2.62,-5.17 6.1,-9.72 9.4,-14.29 1.11,-1.54 4.36,-5.48 4.61,-7.28 0.23,-1.65 -1.68,-2 -2.86,-1.9 -0.58,0.05 -1.61,0.34 -2.46,0.66 -1.67,0.63 -3.53,1.98 -4.91,3.06 -3.84,3.02 -8.1,8.2 -10.91,12.36 -0.7,1.04 -1.59,2.3 -2.33,3.52l-3.85 6.25c-0.23,0.36 -0.36,0.74 -0.74,0.74z"/>
  </g>
 </g>
</svg>
