<?xml version="1.0" encoding="UTF-8"?>
<!DOCTYPE svg PUBLIC "-//W3C//DTD SVG 1.1//EN" "http://www.w3.org/Graphics/SVG/1.1/DTD/svg11.dtd">
<!-- Creator: CorelDRAW -->
<svg xmlns="http://www.w3.org/2000/svg" xml:space="preserve" width="0.582244in" height="1.25328in" version="1.1" style="shape-rendering:geometricPrecision; text-rendering:geometricPrecision; image-rendering:optimizeQuality; fill-rule:evenodd; clip-rule:evenodd"
viewBox="0 0 18.95 40.78"
 xmlns:xlink="http://www.w3.org/1999/xlink"
 xmlns:xodm="http://www.corel.com/coreldraw/odm/2003">
 <defs>
  <style type="text/css">
   <![CDATA[
    .fil0 {fill:#FF6764}
   ]]>
  </style>
 </defs>
 <g id="Layer_x0020_1">
  <metadata id="CorelCorpID_0Corel-Layer"/>
  <path class="fil0" d="M4.17 20.55l0 19.72c0,0.28 0.23,0.51 0.51,0.51l7.32 0c0.28,0 0.51,-0.23 0.51,-0.51l0 -20.04 5.31 0c0.27,0 0.49,-0.2 0.51,-0.47l0.51 -6.04c0.02,-0.3 -0.21,-0.56 -0.51,-0.56l-5.82 0 0 -4.28c0,-1 0.81,-1.82 1.82,-1.82l4.09 0c0.28,0 0.51,-0.23 0.51,-0.51l0 -6.04c0,-0.28 -0.23,-0.51 -0.51,-0.51l-6.91 0c-4.06,0 -7.35,3.29 -7.35,7.35l0 5.82 -3.66 0c-0.28,0 -0.51,0.23 -0.51,0.51l0 6.04c0,0.28 0.23,0.51 0.51,0.51l3.66 0 0 0.32z"/>
 </g>
</svg>
