<?xml version="1.0" encoding="UTF-8"?>
<!DOCTYPE svg PUBLIC "-//W3C//DTD SVG 1.1//EN" "http://www.w3.org/Graphics/SVG/1.1/DTD/svg11.dtd">
<!-- Creator: CorelDRAW -->
<svg xmlns="http://www.w3.org/2000/svg" xml:space="preserve" width="1.11606in" height="0.930114in" version="1.1" style="shape-rendering:geometricPrecision; text-rendering:geometricPrecision; image-rendering:optimizeQuality; fill-rule:evenodd; clip-rule:evenodd"
viewBox="0 0 76.18 63.49"
 xmlns:xlink="http://www.w3.org/1999/xlink"
 xmlns:xodm="http://www.corel.com/coreldraw/odm/2003">
 <defs>
  <style type="text/css">
   <![CDATA[
    .fil0 {fill:#5F51DC}
    .fil1 {fill:#FF6764}
   ]]>
  </style>
 </defs>
 <g id="Layer_x0020_1">
  <metadata id="CorelCorpID_0Corel-Layer"/>
  <path class="fil0" d="M23.71 47.42c-1.16,5.31 -2.65,6.44 -4.46,7.67 -0.17,0.11 -0.23,0.32 -0.17,0.51 0.07,0.19 0.25,0.31 0.45,0.29 4.59,-0.39 6.8,-2.11 10.25,-4.59 2.55,1.07 5.36,1.67 8.3,1.67 11.84,0 21.43,-9.59 21.43,-21.43 0,-11.84 -9.59,-21.43 -21.43,-21.43 -11.84,0 -21.43,9.59 -21.43,21.43 0,6.3 2.72,11.97 7.05,15.89z"/>
  <path class="fil1" d="M9.4 20.71c-7.37,0.08 -6.07,5.19 -6.07,11.61 0,2.73 -0.5,5.92 1.15,7.81 1.78,2.03 3.48,2.3 6.37,1.21 -0.74,-3.91 -1.83,-4.76 -1.7,-10.67 0.08,-3.74 0.92,-7.28 2.2,-10.42 3.47,-8.53 11.23,-15.3 20.39,-17.3 7.29,-1.6 15.52,-0.24 21.84,3.78 17.68,11.23 18.55,39.16 -1.36,49.9 -1.88,1.01 -6.03,2.97 -8.43,2.98 -1.68,-2.04 -3.61,-1.39 -7.82,-1.41 -1.52,-0.01 -2.63,0.17 -3.31,1.13 -0.8,1.13 -0.51,2.61 0.41,3.39 1.11,0.94 6.72,0.85 8.59,0.63 2,-0.23 1.69,-1.39 2.58,-1.93 1.08,-0.65 7.05,-0.66 15.17,-8.02 1.92,-1.74 6.49,-7.55 7.35,-11.46 7.35,0.28 6.13,-5.7 6.13,-10.56 0,-5.85 0.81,-10.94 -6.11,-10.64 -9.66,-29.19 -49.55,-26.06 -57.38,-0.02zm64.35 16.29c2.88,0.62 2.4,-3.5 2.4,-5.63 -0,-2.47 0.51,-6.04 -2.37,-5.78l-0.02 11.41zm-71.29 0.19l-0.01 -11.69c-2.95,0.34 -2.39,2.98 -2.39,5.64 -0,3.32 -0.67,5.49 2.4,6.05z"/>
 </g>
</svg>
