<?xml version="1.0" encoding="UTF-8"?>
<!DOCTYPE svg PUBLIC "-//W3C//DTD SVG 1.1//EN" "http://www.w3.org/Graphics/SVG/1.1/DTD/svg11.dtd">
<!-- Creator: CorelDRAW -->
<svg xmlns="http://www.w3.org/2000/svg" xml:space="preserve" width="0.789213in" height="1.30622in" version="1.1" style="shape-rendering:geometricPrecision; text-rendering:geometricPrecision; image-rendering:optimizeQuality; fill-rule:evenodd; clip-rule:evenodd"
viewBox="0 0 105.25 174.19"
 xmlns:xlink="http://www.w3.org/1999/xlink"
 xmlns:xodm="http://www.corel.com/coreldraw/odm/2003">
 <defs>
  <style type="text/css">
   <![CDATA[
    .fil1 {fill:#5F51DC}
    .fil0 {fill:#FF6764}
   ]]>
  </style>
 </defs>
 <g id="Layer_x0020_1">
  <metadata id="CorelCorpID_0Corel-Layer"/>
  <g id="_1607978759168">
   <path class="fil0" d="M52.62 0c-5.83,0.02 -11.88,1.03 -18,3.21 -30.14,10.73 -43.3,45.27 -28.57,74.22 8.04,15.81 14.89,18.55 17.12,40.52 1.99,19.58 7.65,18.3 29.45,17.68 21.8,0.62 27.47,1.9 29.45,-17.68 2.23,-21.97 9.07,-24.71 17.12,-40.52 14.73,-28.95 1.57,-63.49 -28.57,-74.22 -6.12,-2.18 -12.17,-3.18 -18,-3.21z"/>
   <path class="fil1" d="M32.41 140.39l40.43 0c1.99,0 3.62,1.63 3.62,3.62 0,1.99 -1.63,3.62 -3.62,3.62l-40.43 0c-1.99,0 -3.62,-1.63 -3.62,-3.62 0,-1.99 1.63,-3.62 3.62,-3.62zm10.44 26.57l19.54 0c1.99,0 3.62,1.63 3.62,3.62 0,1.99 -1.63,3.62 -3.62,3.62l-19.54 0c-1.99,0 -3.62,-1.63 -3.62,-3.62 0,-1.99 1.63,-3.62 3.62,-3.62zm-10.44 -13.02l40.43 0c1.99,0 3.62,1.63 3.62,3.62 0,1.99 -1.63,3.62 -3.62,3.62l-40.43 0c-1.99,0 -3.62,-1.63 -3.62,-3.62 0,-1.99 1.63,-3.62 3.62,-3.62z"/>
  </g>
 </g>
</svg>
