<?xml version="1.0" encoding="UTF-8"?>
<!DOCTYPE svg PUBLIC "-//W3C//DTD SVG 1.1//EN" "http://www.w3.org/Graphics/SVG/1.1/DTD/svg11.dtd">
<!-- Creator: CorelDRAW -->
<svg xmlns="http://www.w3.org/2000/svg" xml:space="preserve" width="0.765681in" height="0.967539in" version="1.1" style="shape-rendering:geometricPrecision; text-rendering:geometricPrecision; image-rendering:optimizeQuality; fill-rule:evenodd; clip-rule:evenodd"
viewBox="0 0 116.11 146.72"
 xmlns:xlink="http://www.w3.org/1999/xlink"
 xmlns:xodm="http://www.corel.com/coreldraw/odm/2003">
 <defs>
  <style type="text/css">
   <![CDATA[
    .fil0 {fill:#5F51DC}
    .fil1 {fill:#FF6764}
   ]]>
  </style>
 </defs>
 <g id="Layer_x0020_1">
  <metadata id="CorelCorpID_0Corel-Layer"/>
  <g id="_1607976624336">
   <path class="fil0" d="M23.52 68.1l68.1 0 0 -34.05c0,-18.73 -15.32,-34.05 -34.05,-34.05l-0 0c-18.73,0 -34.05,15.32 -34.05,34.05l0 34.05zm16.05 -16.05l36 0 0 -18c0,-9.87 -8.13,-18 -18,-18 -9.87,0 -18,8.13 -18,18l0 18z"/>
   <path class="fil1" d="M15.5 146.72l85.11 0c8.52,0 15.5,-6.97 15.5,-15.5l0 -68.8c0,-8.52 -6.97,-15.5 -15.5,-15.5l-85.11 0c-8.52,0 -15.5,6.97 -15.5,15.5l0 68.8c0,8.52 6.97,15.5 15.5,15.5zm48.25 -50.28c3.91,-2.05 6.58,-6.16 6.58,-10.88 0,-6.78 -5.5,-12.28 -12.28,-12.28 -6.78,0 -12.28,5.5 -12.28,12.28 0,4.73 2.67,8.83 6.58,10.88l0 18.23c0,3.13 2.56,5.7 5.7,5.7 3.13,0 5.7,-2.56 5.7,-5.7l0 -18.23z"/>
  </g>
 </g>
</svg>
