<?xml version="1.0" encoding="UTF-8"?>
<!DOCTYPE svg PUBLIC "-//W3C//DTD SVG 1.1//EN" "http://www.w3.org/Graphics/SVG/1.1/DTD/svg11.dtd">
<!-- Creator: CorelDRAW -->
<svg xmlns="http://www.w3.org/2000/svg" xml:space="preserve" width="1.30459in" height="1.30459in" version="1.1" style="shape-rendering:geometricPrecision; text-rendering:geometricPrecision; image-rendering:optimizeQuality; fill-rule:evenodd; clip-rule:evenodd"
viewBox="0 0 45.47 45.47"
 xmlns:xlink="http://www.w3.org/1999/xlink"
 xmlns:xodm="http://www.corel.com/coreldraw/odm/2003">
 <defs>
  <style type="text/css">
   <![CDATA[
    .fil1 {fill:#F8F9FD}
    .fil0 {fill:#FF6764}
   ]]>
  </style>
 </defs>
 <g id="Layer_x0020_1">
  <metadata id="CorelCorpID_0Corel-Layer"/>
  <g id="_1607976264176">
   <rect class="fil0" y="-0" width="45.47" height="45.47" rx="10.22" ry="10.22"/>
   <path class="fil1" d="M10.85 13.73c-1.55,0.44 -2.37,0.42 -2.29,1.74l0.95 3.8c0.08,0.7 -0,10.47 0.02,12.13 0.02,1.54 -0.12,3.46 0.03,4.94 0.2,1.03 1.02,1.94 2.19,1.93l22.41 -0.03c2.41,-0 2.75,-1.25 2.75,-3.15l-0.04 -15.59c0.01,-0.86 -0.21,-1.29 -1.06,-1.31l-21.98 -0.02 19.62 -5.84c0.4,-0.12 1.15,-0.36 1.5,-0.51 0.35,-0.14 0.65,-0.46 0.53,-0.94 -0.06,-0.3 -0.65,-2.06 -1.01,-2.84 -0.56,-1.2 -1.47,-0.88 -2.64,-0.55l-20.97 6.23zm9.92 12.03c-0.51,0.24 -0.43,0.78 -0.43,1.43 0,0.62 0,1.25 0,1.87 -0,1.27 -0.01,2.54 -0,3.81 0,0.33 0.02,0.49 0.21,0.7 0.52,0.57 1.15,-0.04 1.88,-0.47l4.73 -2.82c0.49,-0.44 0.14,-0.94 -0.31,-1.21l-3.54 -2.14c-0.4,-0.24 -0.76,-0.46 -1.17,-0.7 -0.36,-0.21 -0.87,-0.71 -1.36,-0.47zm6.45 -16.19c0.27,0.28 1.72,1.31 2.12,1.65l1.45 1.1c0.26,0.11 0.7,-0.11 0.98,-0.19l1.44 -0.43c0.19,-0.06 0.34,-0.08 0.48,-0.2l-2.89 -2.13c-0.98,-0.75 -0.73,-0.65 -1.64,-0.38 -0.63,0.19 -1.33,0.35 -1.94,0.59zm-5.9 1.8l3.68 2.65c0.29,0.15 2.76,-0.73 2.84,-0.79 -0.47,-0.38 -0.93,-0.68 -1.41,-1.04 -0.47,-0.34 -1.01,-0.72 -1.48,-1.06 -0.82,-0.6 -0.55,-0.71 -1.7,-0.37 -0.44,0.13 -1.64,0.4 -1.93,0.61zm-5.72 1.68l3.56 2.68c0.31,0.15 0.7,-0.08 1,-0.17 0.62,-0.18 1.33,-0.43 1.96,-0.58l-3.64 -2.66c-0.27,-0.15 -0.41,-0.03 -0.96,0.14 -0.44,0.13 -1.61,0.42 -1.93,0.6zm1.77 9.32l3.07 0c0.45,-0.66 2.39,-2.96 2.61,-3.41l-2.67 -0.01c-0.42,0 -0.43,0.21 -0.88,0.76 -0.27,0.32 -0.48,0.58 -0.72,0.88 -0.31,0.39 -1.22,1.42 -1.4,1.78zm-7.67 -7.6c0.01,0.01 0.02,0.02 0.03,0.04l3.54 2.6c0.35,0.23 0.42,0.12 0.9,-0.04 0.63,-0.21 1.33,-0.41 1.93,-0.6l-3.53 -2.61c-0.32,-0.24 -0.57,-0.08 -0.97,0.04 -0.55,0.17 -1.4,0.35 -1.89,0.57zm14.15 7.6l2.99 0c0.43,-0.57 0.84,-1.1 1.27,-1.67 0.34,-0.44 1.09,-1.3 1.3,-1.75l-2.89 0.01 -1.33 1.68c-0.24,0.3 -1.26,1.47 -1.34,1.72zm-12.66 -0.01l2.91 0.01 1.91 -2.48c0.19,-0.25 0.52,-0.65 0.65,-0.94 -0.74,-0.01 -1.49,0 -2.23,-0 -0.94,-0.01 -0.64,-0.08 -1.36,0.87l-1.88 2.54zm18.91 -0l3.02 0.01c0.22,-0.26 0.44,-0.57 0.64,-0.84 0.35,-0.49 1.83,-2.31 1.9,-2.58l-2.31 -0.01c-0.64,0 -0.38,0.01 -0.97,0.67l-2.28 2.74z"/>
  </g>
 </g>
</svg>
