<?xml version="1.0" encoding="UTF-8"?>
<!DOCTYPE svg PUBLIC "-//W3C//DTD SVG 1.1//EN" "http://www.w3.org/Graphics/SVG/1.1/DTD/svg11.dtd">
<!-- Creator: CorelDRAW -->
<svg xmlns="http://www.w3.org/2000/svg" xml:space="preserve" width="1.21345in" height="1.29456in" version="1.1" style="shape-rendering:geometricPrecision; text-rendering:geometricPrecision; image-rendering:optimizeQuality; fill-rule:evenodd; clip-rule:evenodd"
viewBox="0 0 107.4 114.58"
 xmlns:xlink="http://www.w3.org/1999/xlink"
 xmlns:xodm="http://www.corel.com/coreldraw/odm/2003">
 <defs>
  <style type="text/css">
   <![CDATA[
    .fil1 {fill:#5F51DC}
    .fil0 {fill:#FF6764}
   ]]>
  </style>
 </defs>
 <g id="Layer_x0020_1">
  <metadata id="CorelCorpID_0Corel-Layer"/>
  <g id="_1607967681168">
   <path class="fil0" d="M93.44 58.19c-0.27,-2.92 3.51,-11.33 5.02,-13.35 1.77,-0.17 7.05,1.58 8.16,2.59 2.05,1.85 -0.49,5.58 -1.31,7.56 -2.05,4.93 -1.59,9.55 -11.87,3.2zm-78.79 -30.26l7.23 -17.53c0.22,-0.53 0.6,-0.91 1.14,-1.12 0.53,-0.21 1.07,-0.2 1.6,0.03l30.38 13.46c1.02,0.45 1.5,1.65 1.06,2.68l-6.67 15.83c-0.43,1.02 -1.59,1.52 -2.62,1.12l-30.93 -11.76c-0.54,-0.2 -0.93,-0.58 -1.16,-1.1 -0.23,-0.53 -0.23,-1.07 -0.01,-1.6zm56.68 21.6c-0.53,1.53 -1.1,3.73 -2.02,5.04 -1.75,-5.15 -6.62,-8.86 -12.37,-8.86 -2.45,0 -4.75,0.68 -6.71,1.86 0.73,-4.58 5.9,-16.51 7.84,-20.55l28.13 12.35c2.43,1.07 0.93,3.26 -2.24,10.83 -1.41,3.37 -2.65,2.88 -5.65,1.71 -1.86,-0.72 -5.26,-2.3 -6.98,-2.38zm23.69 -3.86l-3.59 8.87 -5.67 -2.03c0.37,-1.76 1.04,-3.04 1.74,-4.73l2.14 -4.45c1.79,0.45 4.21,1.24 5.38,2.33z"/>
   <path class="fil1" d="M14.57 0.35l3.26 1.32c2.47,1 3.68,3.83 2.68,6.3l-7.91 19.61c-1,2.47 -3.83,3.68 -6.3,2.68l-3.26 -1.32c-2.47,-1 -3.68,-3.83 -2.68,-6.3l7.91 -19.61c1,-2.47 3.83,-3.68 6.3,-2.68zm52.21 67.19c0.62,1.94 1.91,4.13 2.99,6.13 0.57,1.06 1.22,1.86 0.64,3.4 -0.53,1.43 -2.29,1.38 -3.11,1.85l15.77 35.66 -3.5 0c-1.13,0 -2.1,-0.63 -2.55,-1.67 -1.01,-2.32 -1.76,-4.06 -2.07,-4.78l-10.34 -23.34c-3.04,-6.49 -1.68,-6.36 -5.22,-6.25l-0.01 34.47c0,0.87 -0.71,1.57 -1.57,1.57l-0.47 0c-1.53,0 -2.78,-1.25 -2.78,-2.78l-0.02 -33.2 -2.53 -0.12 -13.38 30.48c-0.49,1.12 -1.36,3.14 -2.44,5.62l-1 0c-0.97,0 -1.81,-0.45 -2.33,-1.27 -0.53,-0.82 -0.6,-1.76 -0.2,-2.65 0.05,-0.11 0.1,-0.22 0.15,-0.33 4.76,-10.57 9.38,-20.78 13.86,-31.4 -2.37,-1.39 -6.35,0.32 0.71,-11.29 2.38,2.57 5.79,4.18 9.58,4.18 3.8,0 7.22,-1.62 9.6,-4.21 0.08,-0.02 0.15,-0.05 0.23,-0.07zm-9.83 -19.12c5.71,0 10.34,4.63 10.34,10.34 0,5.71 -4.63,10.34 -10.34,10.34 -5.71,0 -10.34,-4.63 -10.34,-10.34 0,-5.71 4.63,-10.34 10.34,-10.34zm0 6.5c2.12,0 3.84,1.72 3.84,3.84 0,2.12 -1.72,3.84 -3.84,3.84 -2.12,0 -3.84,-1.72 -3.84,-3.84 0,-2.12 1.72,-3.84 3.84,-3.84z"/>
  </g>
 </g>
</svg>
