<?xml version="1.0" encoding="UTF-8"?>
<!DOCTYPE svg PUBLIC "-//W3C//DTD SVG 1.1//EN" "http://www.w3.org/Graphics/SVG/1.1/DTD/svg11.dtd">
<!-- Creator: CorelDRAW -->
<svg xmlns="http://www.w3.org/2000/svg" xml:space="preserve" width="1.30459in" height="1.30459in" version="1.1" style="shape-rendering:geometricPrecision; text-rendering:geometricPrecision; image-rendering:optimizeQuality; fill-rule:evenodd; clip-rule:evenodd"
viewBox="0 0 88.78 88.78"
 xmlns:xlink="http://www.w3.org/1999/xlink"
 xmlns:xodm="http://www.corel.com/coreldraw/odm/2003">
 <defs>
  <style type="text/css">
   <![CDATA[
    .fil0 {fill:#FF6764}
    .fil1 {fill:#F8F9FD;fill-rule:nonzero}
   ]]>
  </style>
 </defs>
 <g id="Layer_x0020_1">
  <metadata id="CorelCorpID_0Corel-Layer"/>
  <g id="_1607971403776">
   <rect class="fil0" x="-0" y="-0" width="88.78" height="88.78" rx="19.95" ry="19.95"/>
   <path class="fil1" d="M73 15.55c-2.08,-2.08 -5.48,-2.08 -7.55,0l-3.5 3.5 7.55 7.55 3.5 -3.5c2.08,-2.08 2.08,-5.48 0,-7.55zm-35.13 8.11c0.89,0 1.61,0.72 1.61,1.61 0,0.89 -0.72,1.61 -1.61,1.61l-14.91 0c-1.71,0 -3.33,0.68 -4.53,1.89 -1.21,1.21 -1.89,2.83 -1.89,4.53l0 32.77c0,1.71 0.68,3.33 1.89,4.53 1.21,1.21 2.83,1.89 4.53,1.89l32.77 0c1.71,0 3.33,-0.68 4.53,-1.89 1.21,-1.21 1.89,-2.83 1.89,-4.53l0 -15.4c0,-0.89 0.72,-1.61 1.61,-1.61 0.89,0 1.61,0.72 1.61,1.61l0 15.4c0,2.56 -1.02,5 -2.83,6.81 -1.81,1.81 -4.25,2.83 -6.81,2.83l-32.77 0c-2.56,0 -5,-1.02 -6.81,-2.83 -1.81,-1.81 -2.83,-4.25 -2.83,-6.81l0 -32.77c0,-2.56 1.02,-5 2.83,-6.81 1.81,-1.81 4.25,-2.83 6.81,-2.83l14.91 0zm22.29 -2.82l-24.86 24.86 7.55 7.55 24.86 -24.86 -7.55 -7.55zm-25.83 25.91l-1.29 8.76 8.76 -1.29 -7.47 -7.47z"/>
  </g>
 </g>
</svg>
