<?xml version="1.0" encoding="UTF-8"?>
<!DOCTYPE svg PUBLIC "-//W3C//DTD SVG 1.1//EN" "http://www.w3.org/Graphics/SVG/1.1/DTD/svg11.dtd">
<!-- Creator: CorelDRAW -->
<svg xmlns="http://www.w3.org/2000/svg" xml:space="preserve" width="1.31391in" height="1.3139in" version="1.1" style="shape-rendering:geometricPrecision; text-rendering:geometricPrecision; image-rendering:optimizeQuality; fill-rule:evenodd; clip-rule:evenodd"
viewBox="0 0 154.53 154.53"
 xmlns:xlink="http://www.w3.org/1999/xlink"
 xmlns:xodm="http://www.corel.com/coreldraw/odm/2003">
 <defs>
  <style type="text/css">
   <![CDATA[
    .fil0 {fill:#5F51DC}
    .fil1 {fill:#ED5D5A}
   ]]>
  </style>
 </defs>
 <g id="Layer_x0020_1">
  <metadata id="CorelCorpID_0Corel-Layer"/>
  <g id="_1607981290944">
   <path class="fil0" d="M150.99 1.02c-9.07,-2.01 -47.81,-6.48 -91.4,48.96l-35.7 2.2c-1.14,0.07 -2.09,0.65 -2.66,1.64l-20.76 35.65c-0.76,1.3 -0.57,2.89 0.48,3.98l5.09 5.27c0.87,0.9 2.09,1.23 3.3,0.89l24.03 -6.85c1.19,-0.34 2.38,-0.03 3.26,0.85l24.34 24.34c0.87,0.87 1.18,2.07 0.84,3.26l-6.85 24.03c-0.34,1.21 -0.02,2.42 0.89,3.3l5.27 5.09c1.08,1.05 2.67,1.24 3.98,0.48l35.65 -20.76c0.99,-0.58 1.57,-1.52 1.64,-2.66l2.2 -35.7c55.43,-43.59 50.96,-82.34 48.96,-91.4 -0.29,-1.29 -1.23,-2.24 -2.52,-2.52zm-18.2 20.72c5.02,5.02 5.02,13.15 0,18.17 -5.02,5.02 -13.15,5.02 -18.17,0 -5.02,-5.02 -5.02,-13.15 0,-18.17 5.02,-5.02 13.15,-5.02 18.17,0z"/>
   <path class="fil1" d="M34.45 99.29l10.39 10.39 10.39 10.39c0.79,0.79 1.12,1.82 0.92,2.92 -0.19,1.1 -0.85,1.96 -1.86,2.43l-39.01 18.22c-1.29,0.6 -2.74,0.35 -3.75,-0.66 -1.01,-1.01 -1.26,-2.46 -0.66,-3.75l18.22 -39.01c0.47,-1.01 1.33,-1.67 2.43,-1.86 1.1,-0.19 2.13,0.13 2.92,0.92z"/>
  </g>
 </g>
</svg>
