<?xml version="1.0" encoding="UTF-8"?>
<!DOCTYPE svg PUBLIC "-//W3C//DTD SVG 1.1//EN" "http://www.w3.org/Graphics/SVG/1.1/DTD/svg11.dtd">
<!-- Creator: CorelDRAW -->
<svg xmlns="http://www.w3.org/2000/svg" xml:space="preserve" width="1.30459in" height="1.30459in" version="1.1" style="shape-rendering:geometricPrecision; text-rendering:geometricPrecision; image-rendering:optimizeQuality; fill-rule:evenodd; clip-rule:evenodd"
viewBox="0 0 162.66 162.66"
 xmlns:xlink="http://www.w3.org/1999/xlink"
 xmlns:xodm="http://www.corel.com/coreldraw/odm/2003">
 <defs>
  <style type="text/css">
   <![CDATA[
    .fil1 {fill:#1F1E2C}
    .fil0 {fill:#5F51DC}
   ]]>
  </style>
 </defs>
 <g id="Layer_x0020_1">
  <metadata id="CorelCorpID_0Corel-Layer"/>
  <g id="_1607972581904">
   <rect class="fil0" y="-0" width="162.66" height="162.66" rx="36.56" ry="36.56"/>
   <path class="fil1" d="M150.91 81.33c-0.23,-0.68 -0.86,-2.02 -1.14,-2.44l-1.08 -0.11c-0.5,0.53 -0.69,0.78 -0.98,1.47 -0.4,-0.56 -1.1,-4.76 -2.72,-3.28 -0.22,0.21 -0.98,2.9 -1.87,0.57 -0.6,-1.58 -0.77,-3.5 -2.11,-3.19 -1.13,0.27 -1.76,3.97 -2.42,5 -0.66,-1.1 -1.29,-5.28 -2.04,-5.95 -2.04,-1.8 -2.01,3.43 -3.21,4.25 -1.79,-0.61 -0.89,-5.93 -2.92,-5.9 -1.4,0.02 -1.7,3.94 -2.47,6.36 -0.35,-1.06 -1.4,-10.28 -1.71,-12.7 -0.24,-1.86 -0.2,-2.75 -2.08,-2.1 -0.4,1.45 -0.55,3.65 -0.78,5.31 -0.12,0.89 -0.23,1.68 -0.34,2.6 -0.13,1.15 0.05,1.95 -1.01,2 -0.71,-0.59 -0.84,-3.61 -1,-4.74 -0.29,-2 0.17,-3.84 -2.21,-3.44 -0.56,1.8 -0.81,4.61 -1.07,6.52 -0.28,2.13 -0.56,4.5 -0.99,6.58 -0.52,-1.04 -1.24,-5.95 -1.83,-6.51 -2.04,-1.97 -2.02,3.55 -2.98,4.77 -1.19,-0.1 -0.98,-1.04 -1.5,-3.8 -0.26,-1.4 -0.42,-3.23 -1.09,-4.12 -2.03,-0.32 -1.83,2.1 -2.19,3.99 -0.31,1.62 -0.74,3.56 -0.98,5.2 -0.97,-3.4 -0.92,-9.1 -2.02,-12 -1.12,-0.24 -1.6,-0.34 -1.86,0.98l-0.8 5.42c-0.17,1.16 -0.01,1.97 -0.9,2.45 -1.27,-0.68 -1.02,-4.71 -1.6,-6.62 -0.27,-0.9 -1.22,-1.17 -1.81,-0.53 -0.73,0.8 -1.1,7.84 -1.84,9.36 -0.21,-2.02 -1.52,-16.66 -1.97,-17.23 -0.42,-0.52 -1.24,-0.42 -1.58,-0.05 -0.44,0.48 -0.78,5.52 -0.86,6.3 -0.18,1.78 -0.59,7.36 -0.99,8.54l-1.25 -18.89c-0.1,-1.61 0.35,-5.27 -1.84,-4.79 -1.37,0.3 -1.1,2.95 -1.28,5.37l-1.26 19.07c-0.55,-1.48 -1.13,-14.47 -1.3,-17.29l-0.86 -13.06c-0.08,-1.1 0.21,-3.51 -0.85,-3.82 -0.79,0.28 -0.65,0.58 -0.69,1.48 -0.04,0.78 -0.1,1.56 -0.15,2.35 -0.38,5.17 -1.72,29.28 -2.16,30.35l-1.45 -22c-0.06,-1.12 0.03,-2.21 -1.07,-2.44 -2.17,-0.45 -1.73,2.99 -1.84,4.59 -0.41,6.18 -1.03,13.06 -1.26,19.08 -0.59,-1.6 -1.26,-13.96 -1.77,-14.72 -0.32,-0.48 -1.2,-0.63 -1.66,-0.06 -0.46,0.58 -1.75,15.23 -2.01,17.35 -0.55,-1.59 -1.24,-8.63 -1.72,-9.36 -0.42,-0.64 -1.42,-0.61 -1.79,0.13 -0.49,0.97 -0.55,5.96 -1.5,6.85 -1.1,-0.13 -0.91,-1.04 -1.07,-2.22l-0.85 -5.76c-0.3,-1.29 -1.63,-1.23 -2,-0.41 -0.61,1.31 -1.26,9.34 -1.83,11.61 -0.36,-1.77 -0.68,-3.53 -0.99,-5.21 -0.34,-1.86 -0.19,-4.3 -2.19,-4 -0.67,0.87 -0.81,2.55 -1.07,3.96 -0.24,1.29 -0.45,3.99 -1.29,3.97 -0.65,-0.29 -0.5,-0.32 -0.71,-1.2 -0.14,-0.58 -0.3,-1.15 -0.43,-1.72 -0.24,-1.01 -0.56,-2.98 -1.98,-1.95 -0.79,0.58 -1.28,5.38 -1.93,6.62 -0.4,-2.36 -0.73,-4.87 -1.08,-7.25 -0.73,-5 -0.23,-6.27 -2.54,-5.85 -0.73,1.57 -0.66,7.32 -1.61,8.21 -1.27,-0.15 -1.01,-1.8 -1.37,-4.62 -0.19,-1.46 -0.28,-4.42 -0.95,-5.34 -2.05,-1.76 -2.2,4.17 -2.46,6.24 -0.34,2.64 -0.85,5.69 -1.04,8.38 -1.07,-1.49 -0.95,-5.94 -2.44,-6.16 -1.89,-0.28 -1.52,4.02 -2.6,5.84 -1.1,-0.06 -0.95,-0.27 -1.62,-2.57 -0.26,-0.9 -0.58,-2.63 -1.95,-1.73 -0.83,0.54 -1.52,4.98 -2.15,6.04 -0.7,-1.07 -1.24,-4.55 -2.29,-4.95 -1.99,-0.75 -1.49,3.22 -2.97,4.05 -1.14,-0.35 -0.38,-0.55 -1.06,-1.38 -1.55,-1.9 -2.54,2.81 -2.8,3.2 -0.36,-0.76 -0.46,-0.92 -0.98,-1.47 -1,0.03 -1.13,0.04 -1.49,0.82 -0.26,0.55 -0.53,1.14 -0.73,1.69 0.99,2.47 0.97,2.44 2.23,2.47 0.58,-0.59 0.59,-0.63 0.98,-1.48 0.35,0.53 1.08,5.06 2.8,3.21 0.21,-0.22 0.89,-2.87 1.82,-0.32 0.17,0.46 0.27,0.8 0.45,1.3 1.83,5.26 3.36,-2.17 4.05,-3.26 0.62,1.05 1.42,5.57 2.15,6.05 1.33,0.87 1.68,-0.8 1.98,-1.73 0.37,-1.16 0.33,-2.54 1.56,-2.55 1.18,1.59 0.66,6.1 2.64,5.82 1.51,-0.22 1.3,-4.51 2.4,-6.27l1.62 12.63c0.24,1.85 0.24,2.65 2.09,2.11 0.37,-1.48 0.56,-3.66 0.78,-5.34 0.23,-1.75 0.22,-4.95 1.34,-4.59 0.75,0.62 0.92,4.21 1.09,5.42 0.11,0.82 0.15,2.26 0.69,2.66 1.15,0.86 1.67,-0.45 1.78,-1.32 0.53,-3.87 1.05,-7.84 1.71,-11.71 0.56,1.16 1.22,5.95 1.81,6.54 1.27,1.27 1.8,-0.68 2.01,-1.54 0.24,-1.03 0.48,-2.55 0.99,-3.21 1.23,0.06 0.97,1.13 1.49,3.77 0.27,1.38 0.43,3.21 1.09,4.11 2.01,0.38 1.87,-2.15 2.2,-3.98 0.29,-1.63 0.57,-3.64 1.02,-5.22 0.12,1.45 1.61,11.19 1.98,12.02 2.42,0.58 2.04,-2.13 2.66,-6.39 0.16,-1.13 0.01,-2.04 0.9,-2.44 0.88,0.41 0.92,2.5 1.21,4.27 0.33,1.98 -0.06,3.37 2.21,3.05 0.94,-2.33 0.87,-7.29 1.8,-9.66 0.33,3.25 0.71,6.46 1.04,9.74 0.16,1.55 0.33,3.2 0.49,4.74 0.2,1.85 -0.15,3.67 2.03,3.05 0.56,-1.21 0.77,-5.52 0.98,-7.35 0.17,-1.55 0.49,-6.61 0.9,-7.62 0.05,4.91 0.86,13.37 1.24,18.89 0.11,1.63 -0.36,5.24 1.85,4.78 1.55,-0.32 1.16,-3.81 1.27,-5.36l1.25 -19.07c0.31,0.73 2.08,27.12 2.31,32.5 0.11,2.52 1.28,1.99 1.39,0.55l1 -15.43c0.14,-2.4 0.92,-16.29 1.23,-17.48 0.33,0.94 1.1,15.57 1.33,18.75 0.18,2.45 -0.1,5.25 1.29,5.54 2.15,0.46 1.73,-2.95 1.84,-4.6 0.15,-2.19 0.27,-4.28 0.43,-6.44 0.3,-4.04 0.73,-8.57 0.82,-12.65 0.64,1.72 1.08,13.06 1.86,14.99 2.22,0.56 1.83,-1.01 2.03,-2.89 0.16,-1.57 0.33,-3.17 0.49,-4.73 0.35,-3.29 0.64,-6.52 1.04,-9.79 0.76,1.64 1.07,8.22 1.74,9.22 0.4,0.6 1.41,0.62 1.79,-0.12 0.53,-1.02 0.53,-5.94 1.5,-6.87 1.12,0.14 0.88,1 1.06,2.22 0.15,1.06 0.27,1.85 0.43,2.85 0.14,0.9 0.25,2.11 0.44,2.92 0.26,1.13 1.45,1.32 1.93,0.54 0.22,-0.36 0.81,-4.9 0.93,-5.67l0.87 -5.44c0.16,-0.49 0.11,-0.28 0.2,-0.45l1.37 7.66c0.21,1.1 0.42,1.55 1.73,1.36 0.66,-0.92 1.21,-4.77 1.47,-6.25 0.2,-1.15 0.08,-1.56 1.08,-1.69 0.47,0.62 0.72,2.06 0.97,3.08 0.12,0.47 0.23,1.33 0.5,1.65 0.32,0.38 1.07,0.55 1.56,0.08 0.58,-0.56 1.27,-5.34 1.79,-6.53 0.87,3.89 1,9.76 2.07,13.1 2.33,0.31 1.89,-1.12 2.19,-3.28 0.16,-1.11 0.38,-4.28 0.95,-4.88 1.04,-0.13 0.93,0.61 1.04,1.62 0.1,0.91 0.24,1.84 0.35,2.75 0.21,1.68 0.4,4.08 0.81,5.51 2.36,0.73 1.93,-1 2.62,-6.24 0.36,-2.74 0.81,-5.71 1.07,-8.49 0.91,1.47 0.98,6.06 2.4,6.27 1.79,0.27 1.5,-3.57 2.6,-5.83 1.29,0.06 1.23,1.35 1.6,2.56 0.29,0.95 0.63,2.58 1.97,1.72 0.82,-0.52 1.5,-4.88 2.16,-6.02 0.97,1.48 1.28,5.48 2.97,4.95 0.82,-0.26 1.15,-2.03 1.58,-3.15 0.31,-0.8 0.16,-0.75 0.91,-0.9 1.16,0.67 -0,1.93 2.22,1.63 0.86,-1.25 0.83,-2.38 1.45,-3.48 0.63,1.61 1.82,2.2 2.59,0.38 0.2,-0.47 0.38,-0.83 0.61,-1.34z"/>
  </g>
 </g>
</svg>
