<?xml version="1.0" encoding="UTF-8"?>
<!DOCTYPE svg PUBLIC "-//W3C//DTD SVG 1.1//EN" "http://www.w3.org/Graphics/SVG/1.1/DTD/svg11.dtd">
<!-- Creator: CorelDRAW -->
<svg xmlns="http://www.w3.org/2000/svg" xml:space="preserve" width="1.30459in" height="1.30459in" version="1.1" style="shape-rendering:geometricPrecision; text-rendering:geometricPrecision; image-rendering:optimizeQuality; fill-rule:evenodd; clip-rule:evenodd"
viewBox="0 0 59.26 59.26"
 xmlns:xlink="http://www.w3.org/1999/xlink"
 xmlns:xodm="http://www.corel.com/coreldraw/odm/2003">
 <defs>
  <style type="text/css">
   <![CDATA[
    .fil1 {fill:#1F1E2C}
    .fil0 {fill:#5F51DC}
   ]]>
  </style>
 </defs>
 <g id="Layer_x0020_1">
  <metadata id="CorelCorpID_0Corel-Layer"/>
  <g id="_1608052022512">
   <rect class="fil0" x="0" y="-0" width="59.26" height="59.26" rx="13.32" ry="13.32"/>
   <path class="fil1" d="M13.66 9.53l31.95 0c0.7,0 1.37,0.14 1.99,0.4 0.64,0.27 1.22,0.65 1.69,1.13 0.48,0.48 0.87,1.05 1.13,1.69 0.25,0.61 0.4,1.29 0.4,1.99l0 22.97c0,0.7 -0.14,1.37 -0.4,1.99 -0.27,0.64 -0.65,1.21 -1.13,1.69 -0.48,0.48 -1.06,0.87 -1.69,1.13 -0.61,0.25 -1.29,0.4 -1.99,0.4l-11.44 0c0.08,0.74 0.23,1.71 0.53,2.57 0.22,0.61 0.51,1.16 0.9,1.51l2.03 0c0.38,0 0.72,0.15 0.97,0.4 0.25,0.25 0.4,0.59 0.4,0.97 0,0.38 -0.15,0.72 -0.4,0.97 -0.25,0.25 -0.59,0.4 -0.97,0.4l-15.83 0c-0.38,0 -0.72,-0.15 -0.97,-0.4 -0.25,-0.25 -0.4,-0.59 -0.4,-0.97 0,-0.38 0.15,-0.72 0.4,-0.97 0.25,-0.25 0.59,-0.4 0.97,-0.4l1.89 0c0.39,-0.34 0.68,-0.9 0.9,-1.51 0.3,-0.85 0.45,-1.82 0.53,-2.57l-11.44 0c-0.7,0 -1.37,-0.14 -1.99,-0.4 -0.64,-0.27 -1.22,-0.65 -1.69,-1.13 -0.48,-0.48 -0.87,-1.05 -1.13,-1.69 -0.25,-0.61 -0.4,-1.29 -0.4,-1.99l0 -22.97c0,-0.7 0.14,-1.37 0.4,-1.99 0.27,-0.64 0.65,-1.21 1.13,-1.69 0.48,-0.48 1.05,-0.87 1.69,-1.13 0.61,-0.25 1.29,-0.4 1.99,-0.4zm10.3 8.57c0.15,-0.11 0.34,-0.16 0.52,-0.13 0.18,0.03 0.34,0.12 0.46,0.27 0.11,0.16 0.16,0.34 0.13,0.52 -0.03,0.18 -0.12,0.34 -0.27,0.46l-5.23 3.87 5.23 3.87c0.15,0.11 0.25,0.28 0.27,0.46 0.03,0.18 -0.01,0.36 -0.13,0.52 -0.12,0.15 -0.28,0.25 -0.46,0.27 -0.18,0.03 -0.36,-0.02 -0.52,-0.13l-5.98 -4.43 -0.08 -0.07c-0.03,-0.02 -0.05,-0.05 -0.07,-0.08l-0 -0c-0.11,-0.15 -0.15,-0.34 -0.13,-0.52 0.03,-0.18 0.12,-0.34 0.27,-0.46l5.98 -4.43zm7.06 -3.06c0.05,-0.19 0.17,-0.33 0.32,-0.42 0.16,-0.09 0.34,-0.12 0.53,-0.07 0.19,0.05 0.34,0.17 0.42,0.32 0.09,0.16 0.12,0.34 0.07,0.53l-4.23 15.77c-0.05,0.19 -0.17,0.33 -0.32,0.42 -0.14,0.08 -0.32,0.11 -0.49,0.08l-0.04 -0.01c-0.19,-0.05 -0.33,-0.17 -0.42,-0.33 -0.08,-0.14 -0.12,-0.32 -0.08,-0.49 0,-1.17 3.64,-13.6 4.24,-15.81zm3.78 2.93c0.18,-0.03 0.36,0.02 0.52,0.13 1.26,0.94 5.16,3.55 6.01,4.45 0.14,0.11 0.23,0.27 0.25,0.44 0.03,0.18 -0.02,0.36 -0.13,0.52 -0.02,0.03 -0.05,0.06 -0.07,0.08l-0.08 0.07 -5.98 4.43c-0.15,0.11 -0.34,0.16 -0.52,0.13 -0.18,-0.03 -0.34,-0.12 -0.46,-0.27 -0.11,-0.16 -0.16,-0.34 -0.13,-0.52 0.03,-0.18 0.12,-0.34 0.27,-0.46l5.23 -3.87 -5.23 -3.87c-0.15,-0.11 -0.25,-0.28 -0.27,-0.46 -0.03,-0.18 0.02,-0.36 0.13,-0.52 0.11,-0.15 0.28,-0.25 0.46,-0.27zm-3.08 24.95l-4.16 0c-0.07,0.67 -0.19,1.55 -0.43,2.46 -0.14,0.54 -0.33,1.1 -0.57,1.62l6.16 0c-0.24,-0.52 -0.42,-1.08 -0.57,-1.62 -0.24,-0.9 -0.36,-1.78 -0.43,-2.46zm-20.81 -8.88l37.46 0 0 -19.3c0,-0.37 -0.08,-0.73 -0.21,-1.05 -0.14,-0.33 -0.35,-0.64 -0.6,-0.9 -0.26,-0.26 -0.56,-0.46 -0.89,-0.6 -0.32,-0.13 -0.68,-0.21 -1.05,-0.21l-31.95 0c-0.37,0 -0.73,0.08 -1.05,0.21 -0.33,0.14 -0.64,0.35 -0.89,0.6 -0.26,0.26 -0.46,0.56 -0.6,0.9 -0.13,0.32 -0.21,0.68 -0.21,1.05l0 19.3zm37.46 2.45l-37.46 0 0 1.22c0,0.37 0.08,0.73 0.21,1.05 0.14,0.33 0.35,0.64 0.6,0.9 0.26,0.26 0.56,0.46 0.89,0.6 0.32,0.13 0.68,0.21 1.05,0.21l31.95 0c0.37,0 0.73,-0.08 1.05,-0.21 0.33,-0.14 0.64,-0.35 0.89,-0.6 0.26,-0.26 0.46,-0.56 0.6,-0.9 0.13,-0.32 0.21,-0.68 0.21,-1.05l0 -1.22z"/>
  </g>
 </g>
</svg>
