<?xml version="1.0" encoding="UTF-8"?>
<!DOCTYPE svg PUBLIC "-//W3C//DTD SVG 1.1//EN" "http://www.w3.org/Graphics/SVG/1.1/DTD/svg11.dtd">
<!-- Creator: CorelDRAW -->
<svg xmlns="http://www.w3.org/2000/svg" xml:space="preserve" width="1.15993in" height="1.30181in" version="1.1" style="shape-rendering:geometricPrecision; text-rendering:geometricPrecision; image-rendering:optimizeQuality; fill-rule:evenodd; clip-rule:evenodd"
viewBox="0 0 71.97 80.78"
 xmlns:xlink="http://www.w3.org/1999/xlink"
 xmlns:xodm="http://www.corel.com/coreldraw/odm/2003">
 <defs>
  <style type="text/css">
   <![CDATA[
    .fil4 {fill:#4F44B4}
    .fil3 {fill:#5F51DC}
    .fil1 {fill:#FF6764}
    .fil5 {fill:white}
    .fil2 {fill:#CCCCCC;fill-rule:nonzero}
    .fil0 {fill:url(#id0)}
   ]]>
  </style>
  <linearGradient id="id0" gradientUnits="userSpaceOnUse" x1="10.12" y1="71.64" x2="52.53" y2="9.14">
   <stop offset="0" style="stop-opacity:1; stop-color:#E6E6E6"/>
   <stop offset="1" style="stop-opacity:1; stop-color:white"/>
  </linearGradient>
 </defs>
 <g id="Layer_x0020_1">
  <metadata id="CorelCorpID_0Corel-Layer"/>
  <g id="_1607967682800">
   <path class="fil0" d="M5.15 0l37.26 0 20.25 20.25 0 55.38c0,2.83 -2.32,5.15 -5.15,5.15l-52.36 0c-2.83,0 -5.15,-2.31 -5.15,-5.15l0 -70.49c0,-2.83 2.32,-5.15 5.15,-5.15z"/>
   <polygon class="fil1" points="62.65,20.25 42.4,20.25 42.4,0 "/>
   <path class="fil2" d="M13.65 31.2c-0.55,0 -0.99,-0.44 -0.99,-0.99 0,-0.55 0.44,-0.99 0.99,-0.99l34.91 0c0.55,0 0.99,0.44 0.99,0.99 0,0.55 -0.44,0.99 -0.99,0.99l-34.91 0zm0 25.79c-0.55,0 -0.99,-0.44 -0.99,-0.99 0,-0.55 0.44,-0.99 0.99,-0.99l34.91 0c0.55,0 0.99,0.44 0.99,0.99 0,0.55 -0.44,0.99 -0.99,0.99l-34.91 0zm0 -8.6c-0.55,0 -0.99,-0.44 -0.99,-0.99 0,-0.55 0.44,-0.99 0.99,-0.99l34.91 0c0.55,0 0.99,0.44 0.99,0.99 0,0.55 -0.44,0.99 -0.99,0.99l-34.91 0zm0 -8.6c-0.55,0 -0.99,-0.44 -0.99,-0.99 0,-0.55 0.44,-0.99 0.99,-0.99l34.91 0c0.55,0 0.99,0.44 0.99,0.99 0,0.55 -0.44,0.99 -0.99,0.99l-34.91 0z"/>
   <g>
    <path class="fil3" d="M70.92 39.17c1.46,1.59 1.41,4.11 -0.19,5.57l-39.44 36.04 -12.31 -0.03 1.08 -12.26 39.43 -36.05c1.6,-1.46 4.1,-1.29 5.56,0.31 1.46,1.6 5.87,6.43 5.87,6.43z"/>
    <polygon class="fil4" points="31.29,80.78 18.97,80.75 20.05,68.49 "/>
    <polygon class="fil5" points="65.51,49.51 63.75,51.12 52.51,38.82 54.27,37.21 "/>
   </g>
  </g>
 </g>
</svg>
