<?xml version="1.0" encoding="UTF-8"?>
<!DOCTYPE svg PUBLIC "-//W3C//DTD SVG 1.1//EN" "http://www.w3.org/Graphics/SVG/1.1/DTD/svg11.dtd">
<!-- Creator: CorelDRAW -->
<svg xmlns="http://www.w3.org/2000/svg" xml:space="preserve" width="1.30459in" height="1.30459in" version="1.1" style="shape-rendering:geometricPrecision; text-rendering:geometricPrecision; image-rendering:optimizeQuality; fill-rule:evenodd; clip-rule:evenodd"
viewBox="0 0 48.9 48.9"
 xmlns:xlink="http://www.w3.org/1999/xlink"
 xmlns:xodm="http://www.corel.com/coreldraw/odm/2003">
 <defs>
  <style type="text/css">
   <![CDATA[
    .fil1 {fill:#1F1E2C}
    .fil0 {fill:#5F51DC}
   ]]>
  </style>
 </defs>
 <g id="Layer_x0020_1">
  <metadata id="CorelCorpID_0Corel-Layer"/>
  <g id="_1607969467024">
   <rect class="fil0" x="-0" y="-0" width="48.9" height="48.9" rx="10.99" ry="10.99"/>
   <g>
    <g>
     <path class="fil1" d="M17.32 35.1c-0.29,0.29 -1.36,0.74 -1.37,2.28 -0,1.11 0.68,1.92 1.38,2.28 0.89,0.46 2.27,0.3 3.38,0.3l7.39 0c1.08,0 2.58,0.15 3.44,-0.28 0.7,-0.35 1.39,-1.17 1.41,-2.25 0.01,-0.54 -0.16,-1.05 -0.4,-1.42 -0.41,-0.63 -0.62,-0.59 -0.97,-0.91 0.39,-1.35 1.77,-3.66 1.85,-5.16 0.09,-1.72 -0.69,-2.64 -1.59,-3.7 -0.29,-0.34 -0.52,-0.62 -0.81,-0.97 -0.54,-0.64 -1.06,-1.28 -1.6,-1.93l-3.2 -3.85c-0.27,-0.32 -0.51,-0.62 -0.79,-0.95 -0.24,-0.28 -0.5,-0.77 -1.02,-0.75 -0.58,0.02 -1.23,1.1 -1.78,1.73 -0.27,0.31 -0.52,0.61 -0.79,0.95l-3.19 3.85c-0.27,0.33 -0.55,0.68 -0.81,0.98 -0.28,0.32 -0.52,0.65 -0.78,0.95 -0.91,1.06 -1.68,1.91 -1.6,3.68 0.05,1.01 0.5,1.85 0.83,2.67l1.02 2.5zm1.7 -0.29l10.92 -0c0.16,-0.19 1.44,-3.4 1.65,-3.92 0.52,-1.29 0.28,-2.18 -0.56,-3.14 -0.22,-0.25 -0.43,-0.52 -0.65,-0.79l-2.54 -3.07c-0.26,-0.3 -2.34,-2.89 -2.57,-3.05 -0.07,1.77 -0.01,4.19 -0.01,6.04 1.17,0.31 2.31,1.56 2.08,3.17 -0.47,3.33 -5.28,3.31 -5.75,0.04 -0.17,-1.14 0.33,-2.17 1.18,-2.77 0.31,-0.22 0.59,-0.28 0.89,-0.46 0.07,-1.19 0.02,-4.56 0.01,-6.01 -0.15,0.09 -0.08,0.04 -0.19,0.18l-2.38 2.88c-0.87,1.04 -1.7,2.02 -2.55,3.06 -0.81,1 -2,1.96 -1.21,3.92l1.52 3.69c0.07,0.17 0.06,0.16 0.18,0.23zm-0.71 1.64c-0.48,0.14 -0.91,0.53 -0.72,1.22 0.15,0.56 0.63,0.71 1.28,0.71 1.32,-0 11.42,0.07 11.81,-0.05 0.92,-0.3 1.12,-1.93 -0.59,-1.92 -1.34,0.01 -11.38,-0.07 -11.78,0.04zm5.96 -8.08c-1.75,0.28 -1.31,2.86 0.4,2.59 0.64,-0.1 1.21,-0.73 1.09,-1.51 -0.1,-0.63 -0.72,-1.21 -1.49,-1.08z"/>
    </g>
    <path class="fil1" d="M13.22 12.57l5.75 -0.01 -0.23 0.34c-0.06,0.09 -0.47,0.37 -0.78,0.58 -0.16,0.11 -0.29,0.2 -0.32,0.23 -0.19,0.14 -0.36,0.29 -0.52,0.42 -0.16,0.14 -0.32,0.28 -0.48,0.43 -0.28,0.26 -0.57,0.58 -0.86,0.93 -0.28,0.34 -0.55,0.7 -0.79,1.08 -0.52,0.8 -0.92,1.6 -1.21,2.48 -0.3,0.89 -0.49,1.86 -0.61,3.01l-0.01 0.15 -0.14 0.04c-0.53,0.15 -1.02,0.52 -1.35,1.04 -0.28,0.45 -0.43,1.02 -0.33,1.65 0.13,0.82 0.6,1.4 1.19,1.71 0.36,0.19 0.77,0.29 1.18,0.29 0.41,0 0.82,-0.09 1.18,-0.27 0.6,-0.31 1.07,-0.87 1.21,-1.7 0.06,-0.32 0.04,-0.63 -0.02,-0.91 -0.07,-0.33 -0.2,-0.62 -0.36,-0.87 -0.15,-0.23 -0.31,-0.4 -0.51,-0.54 -0.2,-0.15 -0.44,-0.27 -0.75,-0.4l-0.14 -0.06 0.01 -0.15c0.05,-1.04 0.31,-2.07 0.68,-3.01 0.42,-1.08 1,-2.03 1.57,-2.71 0.32,-0.37 0.61,-0.7 0.94,-1.01 0.33,-0.31 0.68,-0.6 1.1,-0.9 0.24,-0.17 0.98,-0.62 1.65,-0.95 0.44,-0.22 0.86,-0.38 1.11,-0.37l0.21 0.01 0 0.21c0,0.36 0.06,0.66 0.18,0.88 0.12,0.22 0.29,0.38 0.52,0.5 0.37,0.19 1.12,0.17 1.72,0.15l0.45 -0.01c0.15,0 0.34,0 0.54,0.01 1.24,0.03 2.19,0.05 2.3,-1.57l0.02 -0.23 0.23 0.03c0.28,0.03 0.69,0.2 1.11,0.41 0.61,0.3 1.25,0.69 1.54,0.88 1.21,0.83 2.29,2.01 3.07,3.38 0.74,1.3 1.21,2.77 1.28,4.29l0.01 0.15 -0.14 0.06c-0.85,0.36 -1.35,0.93 -1.56,1.55 -0.13,0.4 -0.15,0.82 -0.06,1.22 0.08,0.4 0.27,0.78 0.54,1.1 0.43,0.5 1.07,0.84 1.85,0.84 0.86,-0.01 1.51,-0.39 1.91,-0.95 0.24,-0.33 0.39,-0.71 0.45,-1.11 0.06,-0.4 0.03,-0.81 -0.1,-1.19 -0.22,-0.64 -0.73,-1.2 -1.56,-1.47l-0.13 -0.04 -0.02 -0.14c-0.16,-1.21 -0.33,-2.16 -0.61,-3.02 -0.28,-0.85 -0.65,-1.62 -1.21,-2.48 -0.39,-0.6 -0.78,-1.1 -1.21,-1.56 -0.43,-0.46 -0.89,-0.87 -1.42,-1.28l-0.35 -0.25c-0.32,-0.22 -0.73,-0.51 -0.78,-0.58l-0.23 -0.34 5.9 -0 0.05 0.14c0.17,0.46 0.3,0.77 0.47,1.03 0.16,0.25 0.36,0.45 0.67,0.7 0.54,0.43 1.18,0.63 1.82,0.62 0.47,-0 0.93,-0.11 1.35,-0.31 0.42,-0.2 0.8,-0.49 1.1,-0.86 0.4,-0.5 0.65,-1.15 0.64,-1.9 -0,-0.79 -0.29,-1.49 -0.76,-2.01 -0.49,-0.55 -1.17,-0.92 -1.92,-1.02 -0.8,-0.1 -1.53,0.11 -2.11,0.5 -0.64,0.44 -1.09,1.1 -1.24,1.79l-0.04 0.17 -8.56 0 -0 -0.22c-0,-0.46 -0.01,-0.85 -0.09,-1.15 -0.07,-0.28 -0.21,-0.5 -0.48,-0.67 -0.44,-0.29 -1.12,-0.27 -1.78,-0.25 -0.18,0 -0.36,0.01 -0.49,0.01 -0.14,0 -0.32,-0.01 -0.51,-0.01 -0.65,-0.02 -1.35,-0.04 -1.78,0.23 -0.28,0.18 -0.42,0.38 -0.5,0.65 -0.08,0.29 -0.09,0.67 -0.09,1.17l0 0.22 -8.56 0.02 -0.04 -0.17c-0.16,-0.69 -0.61,-1.36 -1.26,-1.8 -0.58,-0.39 -1.31,-0.61 -2.11,-0.5 -0.74,0.1 -1.41,0.47 -1.9,1.03 -0.47,0.53 -0.76,1.23 -0.76,2.01 -0,0.75 0.24,1.39 0.63,1.88 0.3,0.38 0.68,0.68 1.1,0.88 0.43,0.2 0.9,0.31 1.37,0.32 0.63,0 1.25,-0.19 1.79,-0.6 0.29,-0.23 0.5,-0.44 0.68,-0.69 0.18,-0.26 0.32,-0.58 0.49,-1.04l0.05 -0.14 0.15 -0zm-5.05 -1.02c0.13,-0.67 0.61,-1.26 1.52,-1.44l0.02 -0.01c0.56,-0.1 1.05,0.05 1.44,0.33 0.39,0.29 0.65,0.72 0.74,1.17l0 0.02c0.11,0.57 -0.04,1.08 -0.32,1.48 -0.29,0.39 -0.71,0.67 -1.17,0.76l-0.01 0c-0.88,0.17 -1.55,-0.21 -1.93,-0.78 -0.15,-0.22 -0.25,-0.47 -0.3,-0.73 -0.05,-0.26 -0.05,-0.53 -0,-0.79zm28.82 0.02c0.12,-0.67 0.6,-1.27 1.5,-1.46 0.88,-0.18 1.54,0.17 1.91,0.73 0.15,0.22 0.25,0.47 0.3,0.73 0.05,0.26 0.06,0.53 0.01,0.79 -0.12,0.68 -0.58,1.29 -1.44,1.48 -0.89,0.19 -1.58,-0.17 -1.96,-0.74 -0.15,-0.22 -0.26,-0.47 -0.31,-0.73 -0.06,-0.26 -0.06,-0.53 -0.01,-0.8zm-3.05 12.68c0.09,-0.44 0.42,-0.83 1.02,-0.94 0.35,-0.06 0.67,0.02 0.91,0.19 0.27,0.19 0.46,0.48 0.52,0.8l0 0.01c0.07,0.38 -0.03,0.72 -0.22,0.98 -0.19,0.26 -0.47,0.44 -0.76,0.49l-0.01 0c-0.59,0.11 -1.04,-0.14 -1.29,-0.53 -0.09,-0.14 -0.16,-0.31 -0.19,-0.48 -0.03,-0.17 -0.03,-0.35 0,-0.52zm-21.48 0.22c0.01,-0.44 0.26,-0.87 0.82,-1.09l0.04 -0.02c0.36,-0.13 0.71,-0.08 0.98,0.07 0.27,0.14 0.48,0.39 0.58,0.64l0.01 0.03c0.12,0.34 0.09,0.68 -0.03,0.95 -0.14,0.31 -0.41,0.56 -0.7,0.67 -0.54,0.2 -1.02,0.03 -1.33,-0.29 -0.12,-0.13 -0.22,-0.28 -0.28,-0.44 -0.06,-0.16 -0.1,-0.34 -0.09,-0.51zm13.41 -10.8l-3.09 0 -0.02 -3.37 3.34 -0.01 -0.02 3.37 -0.21 0z"/>
   </g>
  </g>
 </g>
</svg>
