<?xml version="1.0" encoding="UTF-8"?>
<!DOCTYPE svg PUBLIC "-//W3C//DTD SVG 1.1//EN" "http://www.w3.org/Graphics/SVG/1.1/DTD/svg11.dtd">
<!-- Creator: CorelDRAW -->
<svg xmlns="http://www.w3.org/2000/svg" xml:space="preserve" width="1.11427in" height="1.31452in" version="1.1" style="shape-rendering:geometricPrecision; text-rendering:geometricPrecision; image-rendering:optimizeQuality; fill-rule:evenodd; clip-rule:evenodd"
viewBox="0 0 310.14 365.88"
 xmlns:xlink="http://www.w3.org/1999/xlink"
 xmlns:xodm="http://www.corel.com/coreldraw/odm/2003">
 <defs>
  <style type="text/css">
   <![CDATA[
    .fil0 {fill:#5F51DC}
    .fil2 {fill:#ED5D5A}
    .fil1 {fill:white}
   ]]>
  </style>
 </defs>
 <g id="Layer_x0020_1">
  <metadata id="CorelCorpID_0Corel-Layer"/>
  <g id="_1608168195808">
   <path class="fil0" d="M155.07 100.29c-85.64,0 -155.07,61 -155.07,136.24 0,55.16 34.04,114.22 90.98,124.09 20.3,3.52 42.2,5.36 64.09,5.25 21.9,0.12 43.79,-1.73 64.09,-5.25 56.93,-9.87 90.98,-68.93 90.98,-124.09 0,-75.24 -69.43,-136.24 -155.07,-136.24z"/>
   <path class="fil0" d="M155.07 0c-11.62,0 -23.24,8.98 -32.78,26.94 -0.36,0.66 -0.91,1.09 -1.64,1.26 -0.73,0.17 -1.42,0.03 -2.03,-0.41 -16.84,-12.03 -31.52,3.39 -24.34,13.19 3.74,5.11 19.4,17.09 29.02,30.34 9.68,13.33 13.33,34.38 13.33,34.38l18.44 0 18.44 0c0,0 3.65,-21.04 13.33,-34.38 9.62,-13.25 25.27,-25.23 29.02,-30.34 7.19,-9.8 -7.5,-25.22 -24.34,-13.19 -0.61,0.44 -1.3,0.58 -2.03,0.41 -0.73,-0.17 -1.29,-0.6 -1.64,-1.26 -9.54,-17.96 -21.16,-26.94 -32.78,-26.94z"/>
   <path class="fil1" d="M195.25 255.49c0,9.16 -2.93,17.16 -8.8,23.99 -5.93,6.9 -13.99,11.49 -24.22,13.76l0 19.68c0,2.61 -2.13,4.75 -4.75,4.75l-8.84 0c-2.61,0 -4.75,-2.13 -4.75,-4.75l0 -18.21c-6.18,-0.14 -12.8,-0.79 -19.88,-1.9 -2.46,-0.39 -4.19,-2.59 -3.99,-5.07l1.04 -12.97c0.12,-1.45 0.8,-2.66 1.99,-3.5 1.19,-0.84 2.55,-1.08 3.96,-0.71 6.2,1.65 12.83,2.48 19.88,2.48 14.26,0 21.39,-4.96 21.39,-14.93 0,-4.83 -2.8,-8.83 -8.4,-12.03l-18.36 -7.8c-17.76,-7.43 -26.66,-18.79 -26.66,-34.15 0,-8.93 2.9,-16.59 8.7,-23.06 5.73,-6.43 13.39,-10.56 22.96,-12.39l0 -15.45c0,-2.61 2.13,-4.75 4.75,-4.75l8.67 0c2.61,0 4.75,2.13 4.75,4.75l0 14.08c5.63,0.16 11.02,0.68 16.16,1.59 2.41,0.43 4.09,2.59 3.91,5.04l-0.92 11.97c-0.11,1.42 -0.76,2.61 -1.92,3.46 -1.15,0.85 -2.47,1.12 -3.87,0.81 -6.09,-1.38 -11.7,-2.07 -16.81,-2.07 -13.33,0 -20.02,4.47 -20.02,13.4 0,4.46 2.83,8.3 8.5,11.49l18.56 8c17.96,7.76 26.96,19.26 26.96,34.49z"/>
   <rect class="fil2" x="113.71" y="79" width="82.71" height="26.7" rx="13.35" ry="13.35"/>
  </g>
 </g>
</svg>
