<?xml version="1.0" encoding="UTF-8"?>
<!DOCTYPE svg PUBLIC "-//W3C//DTD SVG 1.1//EN" "http://www.w3.org/Graphics/SVG/1.1/DTD/svg11.dtd">
<!-- Creator: CorelDRAW -->
<svg xmlns="http://www.w3.org/2000/svg" xml:space="preserve" width="0.566236in" height="0.967528in" version="1.1" style="shape-rendering:geometricPrecision; text-rendering:geometricPrecision; image-rendering:optimizeQuality; fill-rule:evenodd; clip-rule:evenodd"
viewBox="0 0 21.88 37.38"
 xmlns:xlink="http://www.w3.org/1999/xlink"
 xmlns:xodm="http://www.corel.com/coreldraw/odm/2003">
 <defs>
  <style type="text/css">
   <![CDATA[
    .fil0 {fill:#5F51DC}
   ]]>
  </style>
 </defs>
 <g id="Layer_x0020_1">
  <metadata id="CorelCorpID_0Corel-Layer"/>
  <path class="fil0" d="M0.09 20.49l12.71 -20.22c0.14,-0.22 0.4,-0.32 0.65,-0.25 0.25,0.07 0.42,0.3 0.42,0.56l0 15.42 7.42 0c0.22,0 0.4,0.11 0.51,0.3 0.11,0.19 0.1,0.41 -0.02,0.59l-12.71 20.22c-0.14,0.22 -0.4,0.32 -0.65,0.25 -0.25,-0.07 -0.42,-0.3 -0.42,-0.56l0 -15.42 -7.42 0c-0.22,0 -0.4,-0.11 -0.51,-0.3 -0.11,-0.19 -0.1,-0.41 0.02,-0.59z"/>
 </g>
</svg>
