<?xml version="1.0" encoding="UTF-8"?>
<!DOCTYPE svg PUBLIC "-//W3C//DTD SVG 1.1//EN" "http://www.w3.org/Graphics/SVG/1.1/DTD/svg11.dtd">
<!-- Creator: CorelDRAW -->
<svg xmlns="http://www.w3.org/2000/svg" xml:space="preserve" width="1.30459in" height="1.30459in" version="1.1" style="shape-rendering:geometricPrecision; text-rendering:geometricPrecision; image-rendering:optimizeQuality; fill-rule:evenodd; clip-rule:evenodd"
viewBox="0 0 102.84 102.84"
 xmlns:xlink="http://www.w3.org/1999/xlink"
 xmlns:xodm="http://www.corel.com/coreldraw/odm/2003">
 <defs>
  <style type="text/css">
   <![CDATA[
    .fil1 {fill:#1F1E2C}
    .fil0 {fill:#5F51DC}
   ]]>
  </style>
 </defs>
 <g id="Layer_x0020_1">
  <metadata id="CorelCorpID_0Corel-Layer"/>
  <g id="_1607970301168">
   <rect class="fil0" x="0" y="-0" width="102.84" height="102.84" rx="23.11" ry="23.11"/>
   <path class="fil1" d="M78.2 26.54l4.22 15.75c0.28,1.05 0.15,2.06 -0.4,3l-21.41 37.09c-1.97,3.41 -5.53,5.07 -7.92,3.7l-6.08 -3.51c-1.89,-1.09 -2.54,-3.52 -1.45,-5.41l6.66 -11.53 5.68 3.28 0.99 -27.95 -23.71 14.83 5.68 3.28 -6.66 11.53c-1.09,1.89 -3.52,2.54 -5.41,1.45l-6.08 -3.51c-2.39,-1.38 -2.73,-5.3 -0.76,-8.71l21.41 -37.09c0.54,-0.94 1.35,-1.56 2.4,-1.84l15.75 -4.22c2.9,-0.78 5.67,-0.41 8.28,1.09l3.73 2.15c2.6,1.5 4.3,3.72 5.08,6.62zm-11.95 0.96c2.19,1.27 2.94,4.07 1.68,6.26 -1.27,2.19 -4.07,2.94 -6.26,1.68 -2.19,-1.27 -2.94,-4.07 -1.68,-6.26 1.26,-2.19 4.07,-2.94 6.26,-1.68z"/>
  </g>
 </g>
</svg>
