<?xml version="1.0" encoding="UTF-8"?>
<!DOCTYPE svg PUBLIC "-//W3C//DTD SVG 1.1//EN" "http://www.w3.org/Graphics/SVG/1.1/DTD/svg11.dtd">
<!-- Creator: CorelDRAW -->
<svg xmlns="http://www.w3.org/2000/svg" xml:space="preserve" width="1.29449in" height="1.29449in" version="1.1" style="shape-rendering:geometricPrecision; text-rendering:geometricPrecision; image-rendering:optimizeQuality; fill-rule:evenodd; clip-rule:evenodd"
viewBox="0 0 438.31 438.31"
 xmlns:xlink="http://www.w3.org/1999/xlink"
 xmlns:xodm="http://www.corel.com/coreldraw/odm/2003">
 <defs>
  <style type="text/css">
   <![CDATA[
    .fil1 {fill:#5F51DC}
    .fil0 {fill:#ED5D5A}
   ]]>
  </style>
 </defs>
 <g id="Layer_x0020_1">
  <metadata id="CorelCorpID_0Corel-Layer"/>
  <g id="_1607979063056">
   <path class="fil0" d="M396.08 42.23l-5.95 -42.23 -58.52 58.52c-1.77,1.77 -2.51,4.09 -2.08,6.56l4.69 27.11 -144.42 144.42c-3.55,3.55 -6.61,10.17 -2.44,14.34 4.43,4.43 11.69,0.21 15.29,-3.39l143.47 -143.47 27.11 4.69c2.47,0.43 4.79,-0.31 6.56,-2.08l58.52 -58.52 -42.23 -5.95z"/>
   <path class="fil1" d="M161.9 276.41c14.06,14.06 36.87,14.06 50.94,0 8.07,-8.07 11.51,-19.02 10.32,-29.55l-10.59 10.59c-9.3,9.3 -24.64,13.85 -35.1,3.39 -9.93,-9.93 -6.66,-25.05 2.44,-34.15l11.54 -11.54c-10.52,-1.19 -21.47,2.24 -29.55,10.32 -14.06,14.06 -14.06,36.87 0,50.93zm-107.02 107.02c73.17,73.17 191.8,73.17 264.97,0 67.8,-67.8 72.76,-174.64 14.9,-248.17l-26.41 26.41c43.54,58.85 38.65,142.26 -14.68,195.59 -58.71,58.71 -153.9,58.71 -212.62,0 -58.71,-58.71 -58.71,-153.91 0,-212.62 53.32,-53.32 136.74,-58.21 195.58,-14.68l26.41 -26.41c-73.53,-57.86 -180.37,-52.9 -248.17,14.91 -73.17,73.17 -73.17,191.8 0,264.97zm52.87 -52.87c43.97,43.97 115.26,43.97 159.23,0 38.54,-38.54 43.3,-98.07 14.27,-141.79l-27.08 27.08c14.97,28.47 10.48,64.5 -13.46,88.44 -29.46,29.46 -77.23,29.46 -106.69,0 -29.46,-29.46 -29.46,-77.23 0,-106.69 23.94,-23.94 59.97,-28.43 88.44,-13.46l27.08 -27.08c-43.72,-29.02 -103.25,-24.27 -141.79,14.27 -43.97,43.97 -43.97,115.26 0,159.23z"/>
  </g>
 </g>
</svg>
