<?xml version="1.0" encoding="UTF-8"?>
<!DOCTYPE svg PUBLIC "-//W3C//DTD SVG 1.1//EN" "http://www.w3.org/Graphics/SVG/1.1/DTD/svg11.dtd">
<!-- Creator: CorelDRAW -->
<svg xmlns="http://www.w3.org/2000/svg" xml:space="preserve" width="1.29016in" height="1.29016in" version="1.1" style="shape-rendering:geometricPrecision; text-rendering:geometricPrecision; image-rendering:optimizeQuality; fill-rule:evenodd; clip-rule:evenodd"
viewBox="0 0 434.89 434.89"
 xmlns:xlink="http://www.w3.org/1999/xlink"
 xmlns:xodm="http://www.corel.com/coreldraw/odm/2003">
 <defs>
  <style type="text/css">
   <![CDATA[
    .fil0 {fill:#5F51DC}
    .fil1 {fill:#ED5D5A}
   ]]>
  </style>
 </defs>
 <g id="Layer_x0020_1">
  <metadata id="CorelCorpID_0Corel-Layer"/>
  <g id="_1607975290336">
   <rect class="fil0" x="-0" y="-0" width="434.89" height="434.89" rx="82.71" ry="82.71"/>
   <path class="fil1" d="M193.66 243.02l-13.54 -15.47c-10.37,-11.46 -24.48,-27.17 -37.8,-34.94 -8.51,-4.97 -15.81,-7.18 -25.72,-6.72 -11.54,0.45 -19.45,7.38 -24.63,16.26 -8.38,14.38 -7.71,32.83 1.05,46.84 8.6,13.76 31.51,37.87 43,50.81 1.54,1.74 5.86,6.45 10.02,10.74 14.45,14.89 31.33,31.42 54.56,27.97 19.23,-2.86 29.31,-25.94 37.28,-41.59 12.1,-23.74 21.41,-47.56 33.41,-71.23 14.49,-28.57 33.7,-53.73 51.95,-78.96 6.15,-8.5 24.1,-30.29 25.49,-40.24 1.28,-9.13 -9.31,-11.03 -15.81,-10.51 -3.19,0.25 -8.92,1.88 -13.62,3.65 -9.23,3.49 -19.52,10.94 -27.13,16.93 -21.22,16.72 -44.77,45.33 -60.28,68.33 -3.87,5.74 -8.79,12.71 -12.88,19.46l-21.29 34.56c-1.28,1.99 -2.01,4.07 -4.07,4.1z"/>
  </g>
 </g>
</svg>
