<?xml version="1.0" encoding="UTF-8"?>
<!DOCTYPE svg PUBLIC "-//W3C//DTD SVG 1.1//EN" "http://www.w3.org/Graphics/SVG/1.1/DTD/svg11.dtd">
<!-- Creator: CorelDRAW -->
<svg xmlns="http://www.w3.org/2000/svg" xml:space="preserve" width="1.11606in" height="0.930114in" version="1.1" style="shape-rendering:geometricPrecision; text-rendering:geometricPrecision; image-rendering:optimizeQuality; fill-rule:evenodd; clip-rule:evenodd"
viewBox="0 0 144.3 120.26"
 xmlns:xlink="http://www.w3.org/1999/xlink"
 xmlns:xodm="http://www.corel.com/coreldraw/odm/2003">
 <defs>
  <style type="text/css">
   <![CDATA[
    .fil1 {fill:#5F51DC}
    .fil0 {fill:#FF6764}
   ]]>
  </style>
 </defs>
 <g id="Layer_x0020_1">
  <metadata id="CorelCorpID_0Corel-Layer"/>
  <g id="_1607693578000">
   <path class="fil0" d="M44.92 89.83c-2.19,10.06 -5.02,12.2 -8.44,14.53 -0.31,0.21 -0.44,0.6 -0.31,0.96 0.13,0.36 0.47,0.58 0.85,0.55 8.7,-0.73 12.88,-4.01 19.42,-8.7 4.84,2.03 10.15,3.16 15.72,3.16 22.42,0 40.59,-18.17 40.59,-40.59 0,-22.42 -18.17,-40.59 -40.59,-40.59 -22.42,0 -40.59,18.17 -40.59,40.59 0,11.94 5.15,22.67 13.36,30.1z"/>
   <path class="fil1" d="M17.8 39.23c-13.96,0.15 -11.5,9.82 -11.5,22 0,5.16 -0.95,11.22 2.17,14.79 3.37,3.85 6.59,4.35 12.07,2.28 -1.4,-7.41 -3.46,-9.01 -3.22,-20.22 0.15,-7.08 1.75,-13.79 4.17,-19.73 6.58,-16.16 21.28,-28.98 38.62,-32.78 13.82,-3.02 29.41,-0.45 41.37,7.16 33.49,21.27 35.13,74.18 -2.58,94.52 -3.56,1.92 -11.42,5.63 -15.97,5.65 -3.18,-3.86 -6.83,-2.63 -14.82,-2.67 -2.87,-0.01 -4.97,0.32 -6.27,2.14 -1.52,2.15 -0.96,4.95 0.77,6.41 2.1,1.79 12.73,1.61 16.27,1.19 3.8,-0.44 3.19,-2.64 4.9,-3.67 2.04,-1.23 13.35,-1.25 28.74,-15.18 3.63,-3.29 12.29,-14.3 13.91,-21.7 13.93,0.53 11.61,-10.81 11.61,-20 0,-11.08 1.53,-20.73 -11.57,-20.16 -18.3,-55.29 -93.86,-49.36 -108.69,-0.05zm121.89 30.87c5.46,1.17 4.54,-6.64 4.54,-10.66 -0,-4.67 0.96,-11.44 -4.5,-10.96l-0.05 21.62zm-135.03 0.35l-0.01 -22.15c-5.59,0.65 -4.53,5.65 -4.53,10.68 -0,6.3 -1.26,10.41 4.55,11.46z"/>
  </g>
 </g>
</svg>
