<?xml version="1.0" encoding="UTF-8"?>
<!DOCTYPE svg PUBLIC "-//W3C//DTD SVG 1.1//EN" "http://www.w3.org/Graphics/SVG/1.1/DTD/svg11.dtd">
<!-- Creator: CorelDRAW -->
<svg xmlns="http://www.w3.org/2000/svg" xml:space="preserve" width="0.789213in" height="1.30622in" version="1.1" style="shape-rendering:geometricPrecision; text-rendering:geometricPrecision; image-rendering:optimizeQuality; fill-rule:evenodd; clip-rule:evenodd"
viewBox="0 0 32.67 54.08"
 xmlns:xlink="http://www.w3.org/1999/xlink"
 xmlns:xodm="http://www.corel.com/coreldraw/odm/2003">
 <defs>
  <style type="text/css">
   <![CDATA[
    .fil0 {fill:#5F51DC}
    .fil1 {fill:#ED5D5A}
   ]]>
  </style>
 </defs>
 <g id="Layer_x0020_1">
  <metadata id="CorelCorpID_0Corel-Layer"/>
  <g id="_1607975366064">
   <path class="fil0" d="M16.34 0c-1.81,0.01 -3.69,0.32 -5.59,1 -9.36,3.33 -13.44,14.05 -8.87,23.04 2.5,4.91 4.62,5.76 5.31,12.58 0.62,6.08 2.38,5.68 9.14,5.49 6.77,0.19 8.53,0.59 9.14,-5.49 0.69,-6.82 2.82,-7.67 5.31,-12.58 4.57,-8.99 0.49,-19.71 -8.87,-23.04 -1.9,-0.68 -3.78,-0.99 -5.59,-1z"/>
   <path class="fil1" d="M10.06 43.58l12.55 0c0.62,0 1.12,0.51 1.12,1.12 0,0.62 -0.51,1.12 -1.12,1.12l-12.55 0c-0.62,0 -1.12,-0.51 -1.12,-1.12 0,-0.62 0.51,-1.12 1.12,-1.12zm3.24 8.25l6.07 0c0.62,0 1.12,0.51 1.12,1.12 0,0.62 -0.51,1.12 -1.12,1.12l-6.07 0c-0.62,0 -1.12,-0.51 -1.12,-1.12 0,-0.62 0.51,-1.12 1.12,-1.12zm-3.24 -4.04l12.55 0c0.62,0 1.12,0.51 1.12,1.12 0,0.62 -0.51,1.12 -1.12,1.12l-12.55 0c-0.62,0 -1.12,-0.51 -1.12,-1.12 0,-0.62 0.51,-1.12 1.12,-1.12z"/>
  </g>
 </g>
</svg>
