<?xml version="1.0" encoding="UTF-8"?>
<!DOCTYPE svg PUBLIC "-//W3C//DTD SVG 1.1//EN" "http://www.w3.org/Graphics/SVG/1.1/DTD/svg11.dtd">
<!-- Creator: CorelDRAW -->
<svg xmlns="http://www.w3.org/2000/svg" xml:space="preserve" width="0.765681in" height="0.967539in" version="1.1" style="shape-rendering:geometricPrecision; text-rendering:geometricPrecision; image-rendering:optimizeQuality; fill-rule:evenodd; clip-rule:evenodd"
viewBox="0 0 29.41 37.17"
 xmlns:xlink="http://www.w3.org/1999/xlink"
 xmlns:xodm="http://www.corel.com/coreldraw/odm/2003">
 <defs>
  <style type="text/css">
   <![CDATA[
    .fil1 {fill:#5F51DC}
    .fil0 {fill:#ED5D5A}
   ]]>
  </style>
 </defs>
 <g id="Layer_x0020_1">
  <metadata id="CorelCorpID_0Corel-Layer"/>
  <g id="_1607693526352">
   <path class="fil0" d="M5.96 17.25l17.25 0 0 -8.63c0,-4.74 -3.88,-8.63 -8.63,-8.63l-0 0c-4.74,0 -8.63,3.88 -8.63,8.63l0 8.63zm4.07 -4.07l9.12 0 0 -4.56c0,-2.5 -2.06,-4.56 -4.56,-4.56 -2.5,0 -4.56,2.06 -4.56,4.56l0 4.56z"/>
   <path class="fil1" d="M3.93 37.17l21.56 0c2.16,0 3.93,-1.77 3.93,-3.93l0 -17.43c0,-2.16 -1.77,-3.93 -3.93,-3.93l-21.56 0c-2.16,0 -3.93,1.77 -3.93,3.93l0 17.43c0,2.16 1.77,3.93 3.93,3.93zm12.22 -12.74c0.99,-0.52 1.67,-1.56 1.67,-2.76 0,-1.72 -1.39,-3.11 -3.11,-3.11 -1.72,0 -3.11,1.39 -3.11,3.11 0,1.2 0.68,2.24 1.67,2.76l0 4.62c0,0.79 0.65,1.44 1.44,1.44 0.79,0 1.44,-0.65 1.44,-1.44l0 -4.62z"/>
  </g>
 </g>
</svg>
