<?xml version="1.0" encoding="UTF-8"?>
<!DOCTYPE svg PUBLIC "-//W3C//DTD SVG 1.1//EN" "http://www.w3.org/Graphics/SVG/1.1/DTD/svg11.dtd">
<!-- Creator: CorelDRAW -->
<svg xmlns="http://www.w3.org/2000/svg" xml:space="preserve" width="1.30459in" height="1.30459in" version="1.1" style="shape-rendering:geometricPrecision; text-rendering:geometricPrecision; image-rendering:optimizeQuality; fill-rule:evenodd; clip-rule:evenodd"
viewBox="0 0 388.75 388.75"
 xmlns:xlink="http://www.w3.org/1999/xlink"
 xmlns:xodm="http://www.corel.com/coreldraw/odm/2003">
 <defs>
  <style type="text/css">
   <![CDATA[
    .fil1 {fill:#1F1E2C}
    .fil0 {fill:#5F51DC}
   ]]>
  </style>
 </defs>
 <g id="Layer_x0020_1">
  <metadata id="CorelCorpID_0Corel-Layer"/>
  <g id="_1608055121328">
   <rect class="fil0" x="0" y="-0" width="388.75" height="388.75" rx="87.37" ry="87.37"/>
   <path class="fil1" d="M92.78 117.41c-13.27,3.76 -20.27,3.59 -19.55,14.85l8.09 32.48c0.71,5.96 -0.02,89.52 0.17,103.72 0.18,13.2 -1,29.55 0.29,42.26 1.71,8.85 8.69,16.58 18.75,16.47l191.55 -0.24c20.57,-0.03 23.53,-10.73 23.49,-26.89l-0.36 -133.28c0.07,-7.34 -1.82,-11.03 -9.07,-11.24l-187.9 -0.15 167.72 -49.89c3.43,-1.02 9.8,-3.11 12.83,-4.33 2.97,-1.2 5.57,-3.95 4.51,-8.05 -0.55,-2.56 -5.58,-17.64 -8.66,-24.25 -4.77,-10.26 -12.54,-7.56 -22.58,-4.69l-179.28 53.23zm84.78 102.86c-4.37,2.07 -3.7,6.67 -3.68,12.2 0.02,5.33 0.01,10.66 0.01,15.99 -0.01,10.84 -0.12,21.75 -0.02,32.59 0.02,2.79 0.14,4.21 1.76,5.97 4.45,4.86 9.8,-0.38 16.04,-3.98l40.43 -24.1c4.17,-3.77 1.23,-8.06 -2.62,-10.33l-30.24 -18.31c-3.41,-2.07 -6.53,-3.96 -10,-5.99 -3.04,-1.78 -7.45,-6.04 -11.66,-4.05zm55.15 -138.44c2.34,2.42 14.67,11.21 18.08,14.09l12.39 9.37c2.21,0.95 5.98,-0.9 8.39,-1.62l12.28 -3.72c1.65,-0.48 2.9,-0.69 4.1,-1.69l-24.68 -18.23c-8.4,-6.4 -6.21,-5.55 -13.99,-3.21 -5.42,1.63 -11.33,3.02 -16.56,5.01zm-50.44 15.37l31.48 22.67c2.49,1.31 23.62,-6.25 24.26,-6.75 -4,-3.24 -7.96,-5.83 -12.09,-8.87 -3.98,-2.93 -8.65,-6.17 -12.65,-9.06 -7.04,-5.09 -4.7,-6.04 -14.49,-3.18 -3.8,1.11 -14.06,3.4 -16.51,5.19zm-48.91 14.35l30.45 22.9c2.67,1.3 5.96,-0.67 8.57,-1.44 5.29,-1.57 11.34,-3.7 16.78,-4.99l-31.15 -22.74c-2.28,-1.32 -3.52,-0.25 -8.19,1.16 -3.74,1.12 -13.78,3.58 -16.46,5.11zm15.15 79.66l26.23 0.02c3.85,-5.67 20.45,-25.28 22.32,-29.16l-22.85 -0.12c-3.57,0 -3.68,1.79 -7.53,6.48 -2.27,2.76 -4.09,4.99 -6.16,7.54 -2.67,3.29 -10.47,12.18 -12,15.25zm-65.57 -64.96c0.07,0.11 0.19,0.14 0.23,0.31l30.24 22.25c2.95,2 3.61,1.03 7.66,-0.32 5.41,-1.8 11.33,-3.47 16.53,-5.12l-30.17 -22.32c-2.76,-2.04 -4.91,-0.68 -8.29,0.34 -4.7,1.42 -11.99,2.97 -16.19,4.85zm120.92 64.94l25.58 0c3.67,-4.87 7.18,-9.41 10.87,-14.26 2.89,-3.8 9.32,-11.1 11.11,-14.92l-24.73 0.09 -11.35 14.4c-2.04,2.54 -10.76,12.53 -11.47,14.68zm-108.23 -0.07l24.88 0.09 16.36 -21.2c1.61,-2.13 4.46,-5.55 5.6,-8.04 -6.36,-0.09 -12.73,0.01 -19.1,-0.04 -8.05,-0.06 -5.5,-0.72 -11.66,7.48l-16.07 21.71zm161.62 -0.01l25.82 0.1c1.9,-2.22 3.77,-4.87 5.44,-7.2 3,-4.2 15.63,-19.75 16.21,-22.02l-19.72 -0.05c-5.51,0 -3.23,0.08 -8.29,5.72l-19.46 23.44z"/>
  </g>
 </g>
</svg>
