<?xml version="1.0" encoding="UTF-8"?>
<!DOCTYPE svg PUBLIC "-//W3C//DTD SVG 1.1//EN" "http://www.w3.org/Graphics/SVG/1.1/DTD/svg11.dtd">
<!-- Creator: CorelDRAW -->
<svg xmlns="http://www.w3.org/2000/svg" xml:space="preserve" width="1.21346in" height="1.29456in" version="1.1" style="shape-rendering:geometricPrecision; text-rendering:geometricPrecision; image-rendering:optimizeQuality; fill-rule:evenodd; clip-rule:evenodd"
viewBox="0 0 130.63 139.36"
 xmlns:xlink="http://www.w3.org/1999/xlink"
 xmlns:xodm="http://www.corel.com/coreldraw/odm/2003">
 <defs>
  <style type="text/css">
   <![CDATA[
    .fil1 {fill:#5F51DC}
    .fil0 {fill:#ED5D5A}
   ]]>
  </style>
 </defs>
 <g id="Layer_x0020_1">
  <metadata id="CorelCorpID_0Corel-Layer"/>
  <g id="_1607974797888">
   <path class="fil0" d="M81.23 82.15c0.75,2.36 2.32,5.03 3.63,7.46 0.7,1.29 1.48,2.26 0.78,4.14 -0.65,1.74 -2.79,1.68 -3.79,2.25l19.18 43.37 -4.25 0c-1.38,0 -2.55,-0.77 -3.1,-2.04 -1.22,-2.82 -2.14,-4.94 -2.51,-5.82l-12.58 -28.39c-3.7,-7.9 -2.05,-7.73 -6.35,-7.6l-0.01 41.93c0,1.05 -0.86,1.91 -1.91,1.91l-0.58 0c-1.86,0 -3.38,-1.52 -3.38,-3.38l-0.02 -40.39 -3.08 -0.14 -16.28 37.07c-0.6,1.37 -1.66,3.82 -2.96,6.83l-1.22 0c-1.18,0 -2.2,-0.55 -2.84,-1.54 -0.64,-0.99 -0.73,-2.15 -0.24,-3.22 0.06,-0.13 0.12,-0.27 0.18,-0.4 5.79,-12.86 11.41,-25.28 16.86,-38.2 -2.89,-1.69 -7.72,0.39 0.86,-13.73 2.9,3.13 7.04,5.09 11.65,5.09 4.62,0 8.78,-1.97 11.68,-5.12 0.09,-0.03 0.18,-0.05 0.28,-0.08z"/>
   <path class="fil1" d="M86.76 60.24c-0.64,1.86 -1.34,4.54 -2.45,6.13 -2.13,-6.26 -8.06,-10.77 -15.04,-10.77 -2.99,0 -5.78,0.82 -8.16,2.26 0.89,-5.57 7.17,-20.08 9.53,-25l34.21 15.03c2.96,1.3 1.13,3.96 -2.72,13.18 -1.72,4.1 -3.22,3.5 -6.88,2.08 -2.27,-0.88 -6.4,-2.8 -8.49,-2.9z"/>
   <path class="fil1" d="M113.65 70.77c-0.33,-3.55 4.27,-13.78 6.11,-16.24 2.16,-0.2 8.58,1.93 9.93,3.15 2.49,2.25 -0.6,6.79 -1.6,9.2 -2.49,6 -1.94,11.62 -14.44,3.89z"/>
   <path class="fil1" d="M115.57 55.54l-4.37 10.79 -6.9 -2.47c0.45,-2.14 1.27,-3.7 2.12,-5.75l2.6 -5.41c2.17,0.55 5.12,1.5 6.55,2.83z"/>
   <path class="fil0" d="M69.27 58.89c6.95,0 12.58,5.63 12.58,12.58 0,6.95 -5.63,12.58 -12.58,12.58 -6.95,0 -12.58,-5.63 -12.58,-12.58 0,-6.95 5.63,-12.58 12.58,-12.58zm0 7.91c2.58,0 4.67,2.09 4.67,4.67 0,2.58 -2.09,4.67 -4.67,4.67 -2.58,0 -4.67,-2.09 -4.67,-4.67 0,-2.58 2.09,-4.67 4.67,-4.67z"/>
   <path class="fil1" d="M17.82 33.97l8.79 -21.32c0.27,-0.65 0.73,-1.11 1.38,-1.37 0.65,-0.26 1.3,-0.25 1.94,0.03l36.95 16.37c1.24,0.55 1.82,2 1.29,3.26l-8.12 19.26c-0.52,1.24 -1.93,1.84 -3.19,1.37l-37.62 -14.31c-0.65,-0.25 -1.13,-0.7 -1.41,-1.34 -0.28,-0.64 -0.28,-1.3 -0.02,-1.94z"/>
   <rect class="fil0" transform="matrix(0.302749 0.12216 -0.12216 0.302749 12.256 -1.77782)" width="49.2" height="114.88" rx="18.04" ry="18.04"/>
  </g>
 </g>
</svg>
