<?xml version="1.0" encoding="UTF-8"?>
<!DOCTYPE svg PUBLIC "-//W3C//DTD SVG 1.1//EN" "http://www.w3.org/Graphics/SVG/1.1/DTD/svg11.dtd">
<!-- Creator: CorelDRAW -->
<svg xmlns="http://www.w3.org/2000/svg" xml:space="preserve" width="1.30459in" height="1.30459in" version="1.1" style="shape-rendering:geometricPrecision; text-rendering:geometricPrecision; image-rendering:optimizeQuality; fill-rule:evenodd; clip-rule:evenodd"
viewBox="0 0 75.19 75.19"
 xmlns:xlink="http://www.w3.org/1999/xlink"
 xmlns:xodm="http://www.corel.com/coreldraw/odm/2003">
 <defs>
  <style type="text/css">
   <![CDATA[
    .fil0 {fill:#5F51DC}
    .fil1 {fill:#1F1E2C;fill-rule:nonzero}
   ]]>
  </style>
 </defs>
 <g id="Layer_x0020_1">
  <metadata id="CorelCorpID_0Corel-Layer"/>
  <g id="_1607970325888">
   <rect class="fil0" x="-0" y="-0" width="75.19" height="75.19" rx="16.9" ry="16.9"/>
   <path class="fil1" d="M61.82 13.17c-1.76,-1.76 -4.64,-1.76 -6.4,0l-2.97 2.97 6.4 6.4 2.97 -2.97c1.76,-1.76 1.76,-4.64 0,-6.4zm-29.75 6.87c0.75,0 1.36,0.61 1.36,1.36 0,0.75 -0.61,1.36 -1.36,1.36l-12.63 0c-1.45,0 -2.82,0.58 -3.84,1.6 -1.02,1.02 -1.6,2.39 -1.6,3.84l0 27.75c0,1.45 0.58,2.82 1.6,3.84 1.02,1.02 2.39,1.6 3.84,1.6l27.75 0c1.45,0 2.82,-0.58 3.84,-1.6 1.02,-1.02 1.6,-2.39 1.6,-3.84l0 -13.04c0,-0.75 0.61,-1.36 1.36,-1.36 0.75,0 1.36,0.61 1.36,1.36l0 13.04c0,2.17 -0.86,4.23 -2.4,5.77 -1.53,1.53 -3.6,2.4 -5.77,2.4l-27.75 0c-2.17,0 -4.23,-0.86 -5.77,-2.4 -1.53,-1.53 -2.4,-3.6 -2.4,-5.77l0 -27.75c0,-2.17 0.86,-4.23 2.4,-5.77 1.53,-1.53 3.6,-2.4 5.77,-2.4l12.63 0zm18.88 -2.39l-21.06 21.06 6.4 6.4 21.05 -21.06 -6.4 -6.4zm-21.88 21.95l-1.09 7.42 7.42 -1.09 -6.33 -6.33z"/>
  </g>
 </g>
</svg>
